<?xml version="1.0" encoding="utf-8"?>
<!-- Generator: Adobe Illustrator 25.4.1, SVG Export Plug-In . SVG Version: 6.00 Build 0)  -->
<svg version="1.1" id="Layer_1" xmlns="http://www.w3.org/2000/svg" xmlns:xlink="http://www.w3.org/1999/xlink" x="0px" y="0px"
	 viewBox="0 0 73.5 44.5" style="enable-background:new 0 0 73.5 44.5;" xml:space="preserve">
<style type="text/css">
	.st0{stroke:#26DAFD;stroke-width:0.1;stroke-miterlimit:10;}
	.st1{fill:#101F25;stroke:#26DAFD;stroke-width:0.1;stroke-miterlimit:10;}
	.st2{fill:#101D23;stroke:#26DAFD;stroke-width:0.1;stroke-miterlimit:10;}
	.st3{fill:#101820;stroke:#26DAFD;stroke-width:0.1;stroke-miterlimit:10;}
	.st4{fill:#101A21;stroke:#26DAFD;stroke-width:0.1;stroke-miterlimit:10;}
	.st5{fill:#101921;stroke:#26DAFD;stroke-width:0.1;stroke-miterlimit:10;}
	.st6{fill:#101A22;stroke:#26DAFD;stroke-width:0.1;stroke-miterlimit:10;}
	.st7{fill:#101B22;stroke:#26DAFD;stroke-width:0.1;stroke-miterlimit:10;}
</style>
<g id="Layer_2_00000155840954856656792520000006058006362314388097_">
	<g id="Layer_1-2">
		<path class="st0" d="M309.4,168.7c1.8-0.8,4,0,4.9,1.8l0,0c4.3,9.3,1.6,20.4-6.4,26.8l0,0c-1.4,1.4-3.7,1.4-5.2,0
			c-1.4-1.4-1.4-3.6-0.1-5c0,0,0,0,0.1-0.1l0.5-0.4l0,0c5.4-4.3,7.2-11.8,4.3-18c-0.8-1.8,0-4,1.8-4.9L309.4,168.7z"/>
		<path class="st0" d="M403.3,186.9h-80.1c-2,0-3.6-1.6-3.6-3.6v0c0-2,1.6-3.6,3.6-3.6l0,0h76.5v-14.6h-76.5c-2,0-3.6-1.6-3.6-3.6
			c0-2,1.6-3.6,3.6-3.6h7.3v-25.3h-7.3c-2,0-3.6-1.6-3.6-3.6c0-2,1.6-3.6,3.6-3.6h76.5V9H232.1v49.3l25.8,2.7l30.6-2.3
			c0.6-0.1,1.2-0.1,1.8,0l5.7,2.7l-6.4-7.5l0,0c-4.2-6.2-6.7-13.3-7.3-20.7c-10.1,3.8-18.5,11.2-23.5,20.8c-0.9,1.8-3.1,2.5-4.9,1.6
			c-1.8-0.8-2.6-2.9-1.7-4.7c0-0.1,0.1-0.1,0.1-0.2l0,0c6.8-12.8,18.7-22.1,32.8-25.6l0,0c4-1,8.1-1.5,12.2-1.5
			c8.3,0,16.4,2,23.7,5.9l0,0c7.5,4,13.9,9.7,18.7,16.8l0,0c15.4,23.3,9.1,54.7-14.2,70.3l-1.1,0.7c-0.6,0.3-1.3,0.5-1.9,0.6
			c-2,0-3.6-1.6-3.6-3.6c0,0,0,0,0,0c-0.1-0.3-0.1-0.7,0-1l-3.6-3.2l-8.1,26.8l-15.4,62.8c-1.4,5.9-7.3,9.5-13.1,8.1c0,0,0,0,0,0
			l-1.4-0.5l-4.1-1.6c-1.9,2.5-4.9,4-8.1,4h-0.7l-45.3-2.8c-2.7,5.6-8.3,9.2-14.6,9.2h-2.3c-2,0-3.6-1.6-3.6-3.6v-27.9
			c0-1.9,1.5-3.6,3.4-3.6l12-0.8l31.8-3.5c-1.1-37.2,6.7-53.9,8.1-56.6l10-30.3l-11.2-4.3L232,80.3v44.9h7.3c2,0,3.6,1.6,3.6,3.6
			c0,2-1.6,3.6-3.6,3.6c0,0,0,0,0,0h-10.8c-2,0-3.6-1.6-3.6-3.6c0,0,0,0,0,0V78.5h-0.6l-6.1,3.3c-3.6,1.9-8,0.6-9.9-2.9
			c-0.6-1.2-0.9-2.5-0.8-3.8h-1.1c-4.2,1.6-8.8-0.5-10.4-4.7c-1.2-3.2-0.3-6.9,2.4-9.1c5.3-5.9,13.6-8,21-5.4l2,0.6l3.9,0.5V5
			c0-1.9,1.4-3.5,3.3-3.6h174.8c2,0,3.6,1.6,3.6,3.6c0,0,0,0,0,0v123.9c0,2-1.6,3.6-3.6,3.6l0,0h-65.6V158h65.6c2,0,3.6,1.6,3.6,3.6
			v0v21.8C406.8,185.4,405.2,186.9,403.3,186.9z M289.5,31.3c0.2,5.5,1.6,10.8,4.2,15.7c7.7-3,14.7-7.5,20.6-13.2
			c-5.3-2.2-10.9-3.3-16.7-3.3C294.9,30.5,292.2,30.7,289.5,31.3z M320.8,37.2c-6.2,6.9-13.9,12.3-22.5,15.8l4.8,5.6
			c0.8,1,1.1,2.4,0.6,3.6l-2.4,7.2c-0.7,2.2,0.5,4.5,2.7,5.2c2,0.7,4.2-0.4,5-2.3l2.7-7.2c0.4-1.1,1.4-2,2.6-2.3l11.3-3h0.5
			c1.6,0,4.5-6.5,5.9-9.4l0.7-1.6C329.5,44.1,325.5,40.2,320.8,37.2z M280.8,200.7c1.9,0.7,3.9-0.2,4.7-2c0,0,0,0,0-0.5l11.8-48.5
			l-8.1,9.4L277,199.2L280.8,200.7z M206.5,208.8c3.3-0.6,6-3,7-6.1l-1.9-15h-5.3L206.5,208.8z M250.7,191.5L250.7,191.5
			c-1.9,0-3.5-1.5-3.6-3.4V184l-28.1,2.9l1.6,12.6l44.9,2.8c1.7,0.1,3.2-0.9,3.7-2.5L278,171c-1.1,0.3-2.3,0-3.2-0.7
			c-1.4-1.4-1.4-3.7,0-5.2l0,0l8.8-10.1l0,0l15-17.2l-38.4-12c-2.6,6.6-8.1,25.6-5.7,61.8c0.2,2-1.2,3.8-3.2,4
			C251,191.6,250.8,191.6,250.7,191.5L250.7,191.5z M269.7,84c1.9,0.6,2.8,2.7,2.2,4.5l-9.5,30.6l39.8,12.4l9.5-32.8
			c0.6-1.9,2.6-3.1,4.5-2.5c1.9,0.6,3.1,2.6,2.5,4.5l0,0l-0.6,1.8l6.8,5.9c2.6-2.1,4.9-4.4,7-7l-13.4-19.2l-5.7-3.2
			c-4.4,4.4-11.5,4.3-15.9-0.1c-2.7-2.7-3.8-6.6-2.9-10.4l-5.7-2.7l-27.2,2.1l-2.7,12L269.7,84z M219.7,64h-0.8l-2.4-0.8
			c-4.7-1.6-9.8-0.3-13.1,3.4c-0.4,0.4-0.4,1.1,0,1.5c0.3,0.2,0.7,0.2,1.1,0l6-1.6c2-0.5,3.9,0.7,4.4,2.7c0,0.4,0,0.8,0,1.1v4.9
			l7.4-4c0.9-0.4,1.8-0.4,2.7,0l26.5,6.7l2.2-10.1L219.7,64z"/>
		<path class="st0" d="M199.3,84.2v0.5c-0.4,6.9,4,13.1,10.5,15.1c1.9,0.6,3,2.7,2.4,4.6c-0.5,1.5-1.9,2.5-3.5,2.5
			c-0.4,0.1-0.8,0.1-1.1,0c-9.8-3-16.2-12.3-15.6-22.5V84c0-2,1.5-3.6,3.5-3.6c0.2,0,0.4,0,0.6,0C198.1,80.7,199.4,82.3,199.3,84.2z
			"/>
		<path class="st1" d="M16.2,319.7c3.1-4.1,8-6.2,13.1-5.7c5.7,0,11.3,0,17,0c7.2,1,14.6-0.8,20.5-5c-1.7,6.4-5.7,9.4-13.7,9.7
			c-6.3,0-12.6,0-18.9,0C28.1,318.6,22.1,318.9,16.2,319.7z"/>
		<path class="st2" d="M231.7,323.7c0-5.3,4.3-9.5,9.6-9.5c0.2,0,0.4,0,0.6,0c15.7,0,31.4,0,47.1,0c1.8,0,4,0,3.7,2.6
			c-0.2,2.6-2.7,2.4-4.6,2.4c-13.7,0-27.5,0-41.2,0C241.3,318.4,235.8,320,231.7,323.7z"/>
		<path class="st3" d="M289.5,335.5c-9.2,0-18.4,0-27.6,0c-2.3,0-5.8,1-5.7-3.3c0.2-4.3,3.3-2.7,5.5-2.7c9.1,0,18.4,0,27.5,0
			c7,0.8,13.3-4.2,14-11.2c0.8-7-4.2-13.3-11.2-14c-1-0.1-1.9-0.1-2.9,0c-8.9,0-17.9,0-26.8,0c-2.3,0-5.9,1.1-5.9-3.1s3.6-2.9,5.9-3
			c9.4,0,18.8,0,28.2,0c6.8,0.2,12.6-5.1,12.8-12c0-0.3,0-0.6,0-0.9c0.1-6.7-5.3-12.3-12.1-12.3c-0.4,0-0.8,0-1.3,0.1
			c-15.3,0-30.6,0-45.9,0c-6.8-0.6-12.8,4.5-13.4,11.3c0,0.6-0.1,1.1,0,1.7c0,9.1,0,18.4,0,28.8c3.8-2.7,6.3-5.5,9.9-5.5
			c17.1,0,34.1,0,51.1,0c3.9,0,7,3.2,7,7.1c0,0.1,0,0.2,0,0.3c0.4,4-2.5,7.7-6.6,8.1c-0.1,0-0.2,0-0.4,0c-2.2,0.1-4.5,0-6.7-0.3
			c-13.3,0-26.7,0-40,0c-7.2-0.8-13.7,4.4-14.4,11.6c-0.1,0.8-0.1,1.6,0,2.5c-0.2,3-0.2,6.1,0,9.1c-0.1,7.1,5.5,12.9,12.6,13
			c0.4,0,0.7,0,1.1,0c15.1,0,30.2,0,45.2,0c7,0.6,13.2-4.5,13.8-11.5c0-0.4,0-0.7,0.1-1.1c0.1-6.8-5.4-12.4-12.2-12.5
			C290.6,335.4,290,335.4,289.5,335.5z M251.1,298.5c0,2,0.6,4.9-2.8,4.8c-3.4-0.2-2.5-2.9-2.7-4.9c-0.2-2,0-3.6,0-5.3
			c0-4.2,1.4-5.7,5.7-5.7c11.8,0,23.6,0,35.4,0c2.2,0,5.6,1,5.5-2.7c-0.1-3.6-3.2-2.3-5.3-2.3c-13.3,0-26.7,0-40,0
			c-4.5,0-6.3,1.6-6.1,6.1c0.2,4.5,0,8.1,0,12.5c0.3,1.8-1,3.5-2.8,3.8c-0.3,0-0.5,0-0.8,0c-2.9,0-1.8-2.6-1.9-4c0-4.6,0-9.2,0-13.7
			c0-7.3,2.7-9.9,9.9-10.1h43.9c5.3,0,9.1,2.4,9.2,8.1c0.1,5.7-4,8.1-9.3,8.1c-10.4,0-20.9,0-31.5,0
			C253.7,292.9,250.8,293.5,251.1,298.5z M288.2,355.8c-14.4,0-28.9,0-43.3,0c-6.9,0-9.3-2.7-9.5-9.7c0-3,0-6.1,0-9.1
			c-0.1-3.3,2.2-6.1,5.4-6.7c0,5.2,0,9.7,0,14.2c0,4.4,1.2,6.1,5.6,6h41.3c1.9,0,4.6,0,4.8-2.2c0.2-2.2-2.7-2.8-4.8-2.8h-36.1
			c-2.2,0-5.4,1.1-5.8-2.5c-1-4.2-0.7-8.7,0.7-12.8c0-0.5,2-0.6,3,0c1,0.6,1.7,1.9,1.5,3.2c-1,6.9,3.2,7.2,8.1,7.1
			c9.6,0,19.2,0,28.9,0c5.4,0,9.7,1.6,10.2,7.7C298.7,354.1,295.2,355.8,288.2,355.8z"/>
		<path class="st4" d="M483.7,282.1c7.6-1.5,15.1,3,17.3,10.4c6.1,13.7,12.8,27.3,19.2,40.9l3.7,7.3c2-1.5,3.5-3.6,4.2-6
			c7.1-14.8,14.1-29.6,21-44.4c1.7-4.3,5.6-7.4,10.2-8.1c3.2-1.2,6.8,0.5,8,3.7c0,0.1,0.1,0.2,0.1,0.3c-9.9-2-12.9,4.6-16.2,11.3
			c-7.1,15.2-14.2,30.5-21.5,45.6c-1.2,2.4-1.6,6.4-4.8,6.6c-3.2,0.2-4-4.2-5.2-6.7c-8.1-16.2-15.1-31.9-22.8-47.9
			c-1.4-3.1-2.2-6.9-6.6-7.4c-1.7-1.3-3.9-1.9-6.1-1.7c-1.1,0-3,0.8-3-1.1C481.4,283.1,482.8,283,483.7,282.1z"/>
		<path class="st4" d="M524.7,317.6c6.1-13.1,11.6-24.9,17.3-36.7c2-6.3,8.8-9.7,15.1-7.7c0.6,0.2,1.2,0.4,1.7,0.7
			c-7,1.2-12.7,6.3-14.6,13.2c-5.2,11.6-10.7,22.9-16.2,34.3c-0.8,1.8-0.9,4.9-3.7,4.7c-2.8-0.2-2.8-3.1-3.7-4.9
			c-5-10.7-9.9-21.3-14.9-32.3c-4.9-11-4.9-10.6-13.6-15.5c5.2-2.4,11.3-0.1,13.7,5.1c0.2,0.4,0.3,0.8,0.4,1.2
			c5.4,10.7,10.4,21.6,15.5,32.3C522.5,313.7,523.3,314.9,524.7,317.6z"/>
		<path class="st5" d="M595.7,344.7c-6.5-16-13.8-31.6-21.9-46.8c-2.2-4.6-7.6-6.6-12.3-4.4c-1.6,0.8-3,2-3.9,3.5
			c-1.5,1.9-2.7,4-3.6,6.2c-7.1,15-14.2,30-21.1,45c-1.9,3.9-3.6,7.6-8.8,7.5c-5.2-0.1-7-3.8-8.7-7.6c-6.6-14.6-13.3-29.2-20-43.9
			c-1.5-3.6-3.7-7-6.3-9.9c-9.9-2.2-11.5-2.2-16,7c-6.7,13.7-12.9,27.4-19.2,41.2c-3.1,6-0.7,13.4,5.3,16.4c0.3,0.1,0.5,0.3,0.8,0.4
			c6.4,3,13.9,0.2,16.9-6.2c0.1-0.3,0.3-0.6,0.4-0.9c2.6-5.5,5.3-10.8,8.1-16.2l9.8-21.3c6.1,13,11.6,24.3,16.7,35.9
			c1.8,7.1,9,11.4,16.1,9.6c4.7-1.2,8.4-4.9,9.6-9.6c5.2-11.5,10.8-22.7,16.2-34.4c2.3,2.2,4.1,5,5,8.1c4.8,9.8,9.1,19.8,14.2,29.4
			c2.7,5.9,9.6,8.5,15.5,5.9c0,0,0.1,0,0.1,0C594.4,357.4,597.7,350.8,595.7,344.7z M490.6,313c-5.9,12.1-11.4,24.3-17.3,36.6
			c-2.7,5.8-7.1,8.1-11.5,5.2c-4-2.1-5.5-6.9-3.4-10.9c0.2-0.3,0.4-0.7,0.6-1c6.2-13,12.2-26,18.4-39.1c0.5-1.3,1.1-2.5,1.9-3.7
			c1.2-1.6,2.9-3.2,4.9-1.9c2,1.3,0,3.1,0,4.5c-5.5,11.9-11.1,23.7-16.7,35.6c-0.9,1.8-1.7,3.5-2.4,5.3c-0.7,1.9-3,4.3,0,5.6
			c3,1.3,3.4-2.2,4.2-3.9c6.1-12.6,12-25.2,18-37.8c0.5-1.1,1.2-2.2,2.1-3.8c2.7,2.4,3.2,6.4,1.1,9.3L490.6,313z M586.3,355.3
			c-3.7,1.5-7.8-0.3-9.4-3.9c-3.3-6.6-6.5-13.3-9.6-20.1c-3.2-6.7-5.4-11.4-8.1-17.1c-0.6-1.2-1.1-2.3-1.5-3.6c-1-2-0.2-4.5,1.9-5.5
			c0,0,0.1,0,0.1-0.1c1.9-0.6,2.4,2,3.1,3.5c5.7,11.8,11.2,23.7,16.7,35.5c0.7,1.6,1.5,3.1,2.4,4.6c0.5,1,1.7,1.4,2.7,1
			c0,0,0.1,0,0.1-0.1c1-0.5,1.5-1.7,1.1-2.7c-0.5-1.4-1.2-2.8-1.9-4.2c-6-12.9-12-25.6-18-38.6c-0.8-1.7-3.6-4-0.9-5.6
			c2.7-1.5,4.7,1.1,6,3.6c1.9,3.9,3.7,8.1,5.6,11.8c4.4,9.2,8.7,18.5,13,27.8c0.9,1.9,1.5,4,1.9,5.1c0.4,3.8-1.8,7.3-5.4,8.6
			L586.3,355.3z"/>
		<path class="st5" d="M87,345.3c-3.9-8.1-8.1-16.2-11.6-24.8c-1.4-3-2.7-4-5.6-1.3c-4,3.5-9.2,5.3-14.6,5.1l-26.1,0.2
			c-14.7,0-20,3.8-25.3,17.2c-3.3,6.3-0.9,14.1,5.4,17.5c0.1,0.1,0.3,0.2,0.4,0.2c6.3,3,13.7,0.3,16.7-5.9c0.2-0.4,0.4-0.8,0.5-1.3
			c3.1-6.2,6-12.6,9.1-18.9c0.8-1.7,1.5-3.4,3.8-3.9c5.8-2.4,12.4,0.4,14.8,6.1c0.2,0.5,0.4,1,0.5,1.5c2,4.3,4.3,8.6,6.1,13
			c2.7,6.3,6.6,11.1,14.1,10.5c7.5-0.6,10.8-5.8,12-12.6L87,345.3z M29.6,335.2c-2.3,5.2-4.8,10.3-7.3,15.4c-1.3,4-5.5,6.1-9.5,4.8
			c-0.4-0.1-0.9-0.3-1.3-0.6c-3.8-1.5-5.7-5.9-4.1-9.7c0.1-0.3,0.2-0.6,0.4-0.8c2.3-5.3,3.6-11.7,12.4-13.8c-2.7,6-4.7,10.4-6.8,15
			c-0.6,1.5-1.3,3,0.6,4c1.9,1,2.8-0.5,3.6-1.9c2.3-4.7,4.6-9.4,6.6-14.2c1.3-3,3.2-5.5,6.2-3.7S30.3,333.5,29.6,335.2z M77.1,355.2
			c-3.1,1.6-6.9,0.6-8.7-2.3c-3.8-6.9-7-14.1-10.4-21.1c-0.6-0.9-0.5-2.1,0.4-2.7c0.2-0.2,0.5-0.3,0.8-0.4c2.1-0.9,3.3,0,4.1,1.9
			c2.4,4.9,4.6,9.9,7.1,14.6c1,1.9,1.4,5.7,4.6,4.1c3.2-1.6,0-4.2-0.5-6.1c-2.1-4.8-4.4-9.5-6.7-14.2c-1.2-2.4-1-4.4,1.4-5.5
			c2.3-1.1,3.2,1.7,3.8,3.2c3.5,6.7,6.6,13.6,9.2,20.7C82.3,350.8,80.3,353.9,77.1,355.2z"/>
		<path class="st6" d="M142.8,285.9c8.1-6.1,11.7-5.7,17,1.1c8.7,11.2,17.1,22.6,25.7,34c4.7,6.3,9.5,12.5,14.2,18.8
			c2.6,5.5,8.5,8.5,14.5,7.4c-6.1,5.8-10.7,5.3-15.8-1.3c-9.9-12.8-19.5-25.7-29.3-38.7c-3.8-5-7.7-10-11.4-15.2
			C154.8,286.7,148.6,284.1,142.8,285.9z"/>
		<path class="st4" d="M214.9,282.4c-0.4-5.8-5.3-10.3-11.2-10.1c-5.7-0.7-11,2.7-12.8,8.1c-1,3.8-1.4,7.7-1.1,11.6
			c0.5,5.4,0.1,10.9-1.1,16.2c-8.1-10.5-15.2-20.3-22.6-29.9c-3.5-5.4-10.5-7.3-16.2-4.3c5.6,0.2,10.7,3.2,13.5,8.1l36.6,48.5
			c1.5,2.2,3.2,4.1,5.3,5.7c2.5,2.1,6.3,1.8,8.4-0.7c0.7-0.9,1.2-2,1.4-3.1C215.3,315.6,215.5,299,214.9,282.4z M208.5,332.5
			c-3.1,0-3.2-3.1-3.2-5.6c0-11.6,0-23.1,0-34.7c0-1.4,0-2.7,0-4c0-1.3,0.5-5.2-2.5-5c-3,0.2-2.3,3.2-2.3,5.3c0,10.9,0,21.8,0,33.7
			c-3.6-1.9-5.8-5.7-5.7-9.8c0-8.5,0-17,0-25.6c0-6.4,3.2-9.9,8.1-9.5s7.7,4.2,7.7,9.5c0,13.6,0,27.1,0,40.4
			C210.6,329.1,211.8,332.5,208.5,332.5z"/>
		<path class="st3" d="M190.9,345.3c-10.9-14.2-21.6-28.5-32.3-42.8c-1.6-2.4-3.5-4.5-5.7-6.3c-2.6-2.2-6.4-2-8.7,0.6
			c-0.9,1.1-1.5,2.4-1.5,3.9c0,16.2,0,32.3,0,49.1c0.7,6.2,5.9,10.8,12.1,10.8c6.4,0.1,11.9-4.7,12.6-11.1c0.5-4.3,0.4-8.7,0.6-13.1
			c0.2-4.4,0-7.2,0-11.2c2.4,1.2,4.4,3.1,5.7,5.5l17.4,23c2.9,5.2,9.1,7.6,14.7,5.8C198.2,357.5,195.1,350.8,190.9,345.3z
			 M163.2,345.3c0,5.2-1.6,9.9-8.1,9.9c-6.5,0-8.1-4.4-8.1-9.6c0-13.5,0-27,0-40.4c0-2-0.7-5.3,2.4-5.1c3.2,0.2,3.5,2.7,3.5,5.4
			c0,5.4,0,10.9,0,16.2c0,7.6,0,15.3,0,22.9c0,1.8-0.7,4.5,2.4,4.3s2-2.5,2-4.2c0-8.7,0-17.4,0-26.1v-8.1c3.6,1.9,5.8,5.7,5.7,9.7
			c0.1,8.7,0.2,17.1,0.1,25.6V345.3z"/>
		<path class="st7" d="M127.3,285.7c0.6-6.8-4.4-12.7-11.2-13.3c-0.6-0.1-1.2-0.1-1.8,0c-7.1,0.2-12.7,6.2-12.4,13.3
			c0,0.2,0,0.5,0,0.7c0,10,0,20.1,0,30.1c0,10,0,20.5,0,30.7c-0.3,7.1,5.2,13.1,12.3,13.4c0,0,0.1,0,0.1,0
			c6.8,0.3,12.5-4.9,12.9-11.7c0-0.4,0-0.7,0-1.1C127.5,327.1,127.5,306.4,127.3,285.7z M122.7,345.7c0,6.4-3.1,9.9-8.1,9.9
			s-8.1-3.2-8.1-9.8c0-19.7,0-39.3,0-59c0-5.3,1.9-9.1,7.5-9.7c5.7-0.6,8.1,3.4,8.1,9.5c0,10,0,20.1,0,30.2
			C122.2,326.8,122.8,336,122.7,345.7z"/>
		<path class="st5" d="M61.2,291.1c-1.5-4.1-3.3-8.1-5.4-11.9c-2.9-6.2-10.3-8.9-16.6-6c-2.6,1.2-4.8,3.4-6,6
			c-4.9,9.5-9.2,19.2-14.5,30.2c8.6-1.2,17.3-1.6,26-1.2c3.1,0.1,6.1-0.3,9.1-1.3c6.1-1.6,9.7-7.8,8.1-13.8
			C61.8,292.4,61.5,291.7,61.2,291.1z M48.4,302.8c-0.8,1.5-7.3,2.4-8.1,0c-1.9-3.9,2.4-7.2,4.2-12.5
			C46.5,295.6,50.6,298.8,48.4,302.8z M56,299.6c-2.2,0.9-2.3-1.3-3-2.5c-1.8-3.7-3.6-7.5-5.4-11.2c-1.9-3.7-4.4-3.9-6.3,0
			c-1.9,3.9-4.5,9.6-6.9,14.2c-1.4,3.2-3.5,4.3-7.6,2.7c3.6-7.4,6.7-14.3,10.3-21.1c1.3-3.8,5.5-5.9,9.4-4.6c1.2,0.4,2.2,1.1,3,2
			c4,4.6,6.8,10.2,8.1,16.2C58.3,296.9,57.6,298.8,56,299.6z"/>
		<path class="st5" d="M392.8,338.3c-4.1-5.4-8.5-10.5-13.1-15.4c-4.5-4.5-5.2-8.1,0-12.9c4.8-5.1,9.4-10.5,13.6-16.2
			c5.1-4.9,5.3-13.1,0.4-18.2c-0.4-0.4-0.8-0.7-1.2-1.1c-5.5-4.4-13.5-3.5-17.9,1.9c-0.2,0.3-0.5,0.6-0.7,0.9
			c-4.4,4.9-8.6,9.9-12.6,15c-2.3,2.9-4.1,3.2-6.6,0c-4.2-5.3-8.7-10.4-13-15.5c-2.5-3.1-6.2-5-10.2-5.3c-4.7,0.1-9,2.7-11.2,6.9
			c-2.6,4.5-1.9,10.2,1.6,14.1c5.2,6.5,10.4,12.9,16.2,19.1c3,3.2,2.8,5.5,0,8.7c-5.5,5.9-10.6,12.2-15.5,18.6
			c-4.7,4.9-4.7,12.6,0.2,17.4c0.4,0.4,0.9,0.8,1.3,1.1c5.4,4.2,13.2,3.3,17.5-2.2c0.1-0.1,0.1-0.1,0.1-0.2
			c4.4-5.1,8.9-10.3,13.1-15.5c2.3-2.8,4-2.7,6.1,0c4.1,5.1,8.1,10.1,12.7,15c3.7,5.9,11.4,7.7,17.3,4c0.6-0.4,1.1-0.8,1.6-1.2
			c5.4-4.5,6-12.5,1.5-17.9C393.7,339.1,393.3,338.7,392.8,338.3z M326.4,291.4c-1.8-1.7-2.8-4-3-6.4c-0.2-2.9,1.3-5.7,3.9-7
			c2.6-1.9,6.2-1.6,8.5,0.6c5.9,6.3,11.4,13,17.1,19.7c1.5,1.7,0.9,3.2-0.7,4.5c-1.6,1.3-2.7,0-3.7-1.2c-4.7-5.5-9.3-11-14-16.2
			c-1.1-1.3-2.4-3.9-4.7-1.9c-2.3,1.9,0,3.6,1.2,4.9c4.7,5.7,9.5,11.4,14.2,17.1c1.5,1.9,2.6,3.6,0,5.6c-2.6,1.9-3.4-0.7-4.4-1.9
			C336.2,303.1,331.3,297.2,326.4,291.4z M389.4,353.7c-3.7,3.6-8.1,2.6-12.8-2.6c-4.7-5.2-10-11.6-14.8-17.5c-3-3.7-5.3-3.6-8.1,0
			c-5.1,6.3-10.4,12.4-15.6,18.5c-2.6,3.7-7.6,4.6-11.3,2c-0.2-0.2-0.5-0.4-0.7-0.6c-3.2-3.1-3.4-8.2-0.3-11.4
			c0.1-0.1,0.2-0.2,0.3-0.3l51.8-61.6c2.1-2.9,5.9-4,9.3-2.7c3.2,0.9,5.2,3.9,5,7.1c0,2.8-1.2,5.5-3.3,7.4
			c-5.4,6.6-10.8,13.2-16.2,19.5c-2.6,2.1-3.1,5.9-1,8.5c0.3,0.4,0.6,0.7,1,1c5.8,6.5,11.3,13.3,16.8,20
			C392.3,345.1,393.9,349.4,389.4,353.7z"/>
		<path class="st4" d="M384.4,349.9c-2.1,0-3.1-1.8-4.1-3.1c-6-7-12-13.8-17.6-21.1c-3.5-4.4-5.7-5.6-9.6,0
			c-5.6,7.5-11.9,14.5-18,21.6c-1.3,1.5-2.5,4.5-5.1,2.1c-2.6-2.4,0-3.6,1.4-4.9c16.6-19.8,33.2-39.5,49.8-59.2
			c1.1-1.3,2.3-3.4,4.2-1.9c1.9,1.5,0.6,3.5-0.7,4.9c-6.6,8.1-12.9,16.2-19.8,23.5c-3.5,3.8-3.1,6.3,0,9.9
			c6.9,7.6,13.3,15.7,19.9,23.5c1,1.2,2.1,2.3,1.1,4S384.9,349.5,384.4,349.9z"/>
		<path class="st2" d="M117.3,316.3v28.1c0,2.2,0,5.1-2.7,5.1s-2.3-3.2-2.3-5.1c0-18.7,0-37.4,0-56.1c0-2.1-0.6-5.1,2.5-5.1
			s2.5,3,2.5,5.1C117.4,297.6,117.3,306.9,117.3,316.3z"/>
		<path class="st7" d="M437.6,317L437.6,317c0-10.7,0-21.3,0-32.3c0.2-6.4-4.8-11.8-11.2-12.1c-0.7,0-1.4,0-2.1,0.1
			c-6-0.6-11.3,3.7-11.9,9.7c-0.1,0.6-0.1,1.3,0,1.9c0,21.1,0,42.2,0,63.4c-0.3,4.2,1.8,8.2,5.4,10.4c5.9,3.9,13.8,2.3,17.7-3.6
			c1.5-2.3,2.2-5,2.1-7.7C437.7,337.1,437.6,327.1,437.6,317z M432.6,316.3v29.9c0,5.3-1.9,9.2-7.6,9.4s-8.1-3.9-8.1-9.1
			c0-20.1,0-40.2,0-60.3c0-5.2,2.5-9.1,8.1-9c5.6,0.2,8.1,4,8.1,9.3C432.6,296.4,432.6,306.3,432.6,316.3z"/>
		<path class="st2" d="M427.2,316.3c0,9.6,0,19.2,0,28.8c0,1.9,0,4.4-2.4,4.5c-2.4,0.1-2.6-2.4-2.6-4.4v-57.6c0-1.9,0-4.5,2.5-4.6
			c2.5-0.1,2.5,3.1,2.5,5C427.3,297.5,427.2,306.8,427.2,316.3z"/>
	</g>
</g>
</svg>
