<svg xmlns="http://www.w3.org/2000/svg" viewBox="0 0 51.87 51.87"><defs><style>.cls-1{stroke:#26dafd;stroke-miterlimit:10;stroke-width:0.1px;}</style></defs><g id="Layer_2" data-name="Layer 2"><g id="Layer_1-2" data-name="Layer 1"><path class="cls-1" d="M28.41,40.38a.87.87,0,0,1,1.16.43h0a5.37,5.37,0,0,1-1.52,6.43l-.09.07A.88.88,0,0,1,26.75,46l.12-.09.09-.07a3.61,3.61,0,0,0,1-4.33.87.87,0,0,1,.43-1.16Z"/><path class="cls-1" d="M51,44.8H31.64a.88.88,0,0,1,0-1.75H50.07V39.54H31.64a.88.88,0,0,1,0-1.76H33.4V31.64H31.64a.88.88,0,0,1,0-1.76H50.07V1.8H9.71V13.69l6.21.65,7.38-.54a.85.85,0,0,1,.44.09l1.37.64-1.56-1.82h0A10.59,10.59,0,0,1,21.8,7.74a10.59,10.59,0,0,0-5.64,5A.88.88,0,0,1,14.59,12v0A12.27,12.27,0,0,1,22.5,5.7l.06,0a12.66,12.66,0,0,1,2.94-.37,12.16,12.16,0,0,1,5.7,1.42h0a12.34,12.34,0,0,1,4.5,4v0a12.26,12.26,0,0,1-3.42,17l-.26.16a.87.87,0,0,1-1.34-.72,1,1,0,0,1,0-.24l-.86-.76L28,32.73l-3.7,15.15a2.63,2.63,0,0,1-3.18,1.93,2.13,2.13,0,0,1-.33-.11l-1-.38a2.61,2.61,0,0,1-2,1h-.17l-10.91-.7a3.94,3.94,0,0,1-3.5,2.23H2.69A.87.87,0,0,1,1.81,51l-.05-6.73a.88.88,0,0,1,.82-.88l2.88-.19,7.65-.83c-.25-9,1.63-13,2-13.66l2.29-7.32-2.67-1-5-1.27v10.8h1.75a.88.88,0,1,1,0,1.76H8.83A.87.87,0,0,1,8,30.76V18.63l-.13,0-1.47.8A1.76,1.76,0,0,1,4,18.7a1.83,1.83,0,0,1-.21-.92l-.26.07a2,2,0,0,1-2-3.3,4.7,4.7,0,0,1,5.05-1.32L7,13.4l.94.1V.93A.87.87,0,0,1,8.83.05H51a.87.87,0,0,1,.87.88V30.76a.87.87,0,0,1-.87.88H35.15v6.14H51a.87.87,0,0,1,.87.88v5.26A.87.87,0,0,1,51,44.8ZM23.54,7.26a8.78,8.78,0,0,0,1,3.78,15.72,15.72,0,0,0,5-3.17,10.4,10.4,0,0,0-4-.8A9.94,9.94,0,0,0,23.54,7.26Zm7.54,1.42c-1.14,1.65-3.81,3.05-5.43,3.79l1.15,1.35a.86.86,0,0,1,.16.87l-.65,1.75a1,1,0,0,0,.63,1.24,1,1,0,0,0,1.22-.56l.64-1.74a.9.9,0,0,1,.62-.55l2.89-.71.11,0c.39-.11,1.09-1.57,1.42-2.27.06-.13.12-.26.19-.39A10.78,10.78,0,0,0,31.08,8.68ZM21.45,48.07a.88.88,0,0,0,1.14-.5l0-.11,2.84-11.64-2,2.27-2.95,9.62ZM3.56,50a2.19,2.19,0,0,0,1.69-1.47L4.78,45,3.52,45Zm10.62-4.14h-.06a.88.88,0,0,1-.88-.82c0-.34,0-.65-.05-1l-6.67.72.4,3,10.82.69a.88.88,0,0,0,.9-.61l2.14-7a.84.84,0,0,1-.79-.18.86.86,0,0,1-.09-1.23h0L22,37.09h0L25.62,33l-9.25-2.89c-.62,1.57-2,6.16-1.38,14.87A.88.88,0,0,1,14.18,45.88ZM18.77,20a.88.88,0,0,1,.53,1.09L17,28.43l9.58,3,2.28-7.92a.88.88,0,1,1,1.68.49l-.12.42L32,25.84a10.8,10.8,0,0,0,1.69-1.69l-3.25-4.61-1.36-.79a2.72,2.72,0,0,1-4.56-2.54l-1.37-.64-6.57.48L16,19Zm-12-4.84a.59.59,0,0,1-.19-.05L6,14.89a3,3,0,0,0-3.17.83.26.26,0,0,0,.26.43l1.44-.37a.87.87,0,0,1,1.07.62.72.72,0,0,1,0,.29l-.08,1.17,1.77-1a1,1,0,0,1,.64-.08l6.39,1.63L14.83,16Z"/><path class="cls-1" d="M1.82,20v.11a3.62,3.62,0,0,0,2.55,3.65A.88.88,0,0,1,4.1,25.5a1.26,1.26,0,0,1-.27,0A5.37,5.37,0,0,1,.06,20v-.11A.9.9,0,0,1,1,19.09.88.88,0,0,1,1.82,20Z"/></g></g></svg>