<svg xmlns="http://www.w3.org/2000/svg" viewBox="0 0 46.38 7.02"><defs><style>.cls-1{fill:#101f25;}.cls-1,.cls-2,.cls-3,.cls-4,.cls-5,.cls-6,.cls-7{stroke:#26dafd;stroke-miterlimit:10;stroke-width:0.1px;}.cls-2{fill:#101d23;}.cls-3{fill:#101820;}.cls-4{fill:#101a21;}.cls-5{fill:#101921;}.cls-6{fill:#101a22;}.cls-7{fill:#101b22;}</style></defs><g id="Layer_2" data-name="Layer 2"><g id="Layer_1-2" data-name="Layer 1"><path class="cls-1" d="M1.12,3.77a1.14,1.14,0,0,1,1-.45c.44,0,.89,0,1.33,0A2.28,2.28,0,0,0,5,2.93c-.13.5-.44.73-1.07.76s-1,0-1.48,0A10.57,10.57,0,0,0,1.12,3.77Z"/><path class="cls-2" d="M17.91,4.08a.74.74,0,0,1,.79-.73c1.22,0,2.45,0,3.67,0,.14,0,.31,0,.29.21s-.21.18-.36.18c-1.07,0-2.14,0-3.21,0A1.39,1.39,0,0,0,17.91,4.08Z"/><path class="cls-3" d="M22.41,5C21.7,5,21,5,20.27,5c-.19,0-.46.07-.45-.26s.26-.21.43-.21h2.14a1,1,0,0,0,1.1-1,1,1,0,0,0-1.11-1c-.7,0-1.4,0-2.1,0-.18,0-.46.09-.46-.24s.29-.22.46-.23c.73,0,1.47,0,2.2,0a1,1,0,0,0,1-1,1,1,0,0,0-1-.95H18.86a1,1,0,0,0-1,1c0,.71,0,1.42,0,2.24.3-.21.5-.43.78-.43,1.33,0,2.65,0,4,0a.55.55,0,0,1,.54.58.57.57,0,0,1-.54.63,4.35,4.35,0,0,1-.51,0H18.94a1,1,0,0,0-1.13,1.1,5.58,5.58,0,0,0,0,.71,1,1,0,0,0,1.06,1h3.53a1,1,0,0,0,1.07-1A1,1,0,0,0,22.41,5Zm-3-2.88c0,.16,0,.38-.22.37S19,2.26,19,2.1s0-.27,0-.4c0-.33.1-.45.44-.45.92,0,1.84,0,2.76,0,.17,0,.44.07.43-.21s-.25-.18-.41-.18c-1,0-2.08,0-3.12,0-.35,0-.49.13-.47.48s0,.65,0,1-.09.3-.27.3-.14-.2-.14-.31c0-.36,0-.71,0-1.07,0-.56.21-.77.77-.79s1.16,0,1.74,0h1.68c.42,0,.72.19.72.63s-.31.61-.72.61c-.82,0-1.64,0-2.45,0C19.62,1.68,19.4,1.73,19.42,2.12Zm2.89,4.47H18.94c-.54,0-.72-.21-.74-.76,0-.24,0-.47,0-.71a.49.49,0,0,1,.42-.52c0,.4,0,.75,0,1.1s.09.47.43.47h3.22c.16,0,.37,0,.38-.17s-.22-.22-.38-.22c-.94,0-1.87,0-2.81,0-.17,0-.42.08-.45-.2a1.76,1.76,0,0,1,0-1s.16,0,.24,0,.13.15.12.25c-.08.53.25.56.65.55.75,0,1.5,0,2.25,0,.42,0,.75.12.79.6S22.85,6.58,22.31,6.59Z"/><path class="cls-4" d="M37.54.84a1.16,1.16,0,0,1,1.35.81c.48,1.08,1,2.13,1.5,3.19l.29.57c.21-.12.25-.31.33-.47.55-1.15,1.09-2.3,1.64-3.46a1,1,0,0,1,.79-.64.49.49,0,0,1,.6.31c-.77-.15-1,.37-1.25.89-.55,1.19-1.11,2.37-1.68,3.55-.09.19-.12.5-.36.51s-.31-.33-.41-.52c-.6-1.24-1.18-2.49-1.78-3.73-.11-.24-.17-.54-.51-.58a.65.65,0,0,0-.47-.13c-.09,0-.23.06-.23-.09S37.47.91,37.54.84Z"/><path class="cls-4" d="M40.74,3.6c.48-1,.91-1.94,1.35-2.85A.94.94,0,0,1,43.4.2a1.45,1.45,0,0,0-1.14,1c-.4.9-.83,1.79-1.26,2.67-.07.14-.07.39-.29.37s-.22-.24-.29-.39L39.26,1.39C38.88.56,38.88.56,38.2.18a.83.83,0,0,1,1.11.49c.42.83.8,1.69,1.21,2.53Z"/><path class="cls-5" d="M46.27,5.72c-.5-1.25-1.08-2.46-1.7-3.65A.71.71,0,0,0,43.33,2a2.08,2.08,0,0,0-.28.48L41.4,6c-.14.31-.28.59-.68.59s-.54-.3-.68-.6C39.5,4.84,39,3.7,38.44,2.56A2.8,2.8,0,0,0,38,1.79c-.76-.2-.88-.17-1.23.55-.53,1.06-1,2.13-1.5,3.21a1,1,0,0,0,.47,1.31A1,1,0,0,0,37,6.31c.2-.43.42-.85.63-1.27l.76-1.66c.47,1,.9,1.9,1.3,2.8a1,1,0,0,0,2,0c.41-.89.84-1.77,1.27-2.68a1.49,1.49,0,0,1,.39.65c.37.76.72,1.54,1.1,2.3a.93.93,0,0,0,1.22.45A.94.94,0,0,0,46.27,5.72Zm-8.2-2.48c-.46,1-.89,1.91-1.35,2.86-.21.45-.56.6-.89.4a.62.62,0,0,1-.22-.92L37,2.53a1.3,1.3,0,0,1,.14-.26c.1-.13.23-.26.39-.16s0,.25,0,.36c-.43.92-.87,1.84-1.3,2.77a3,3,0,0,0-.19.41c-.06.15-.23.34,0,.44s.26-.17.33-.31c.47-1,.93-2,1.39-2.94,0-.09.1-.17.17-.3A.55.55,0,0,1,38.07,3.24Zm7.45,3.3a.55.55,0,0,1-.72-.3c-.27-.52-.51-1-.76-1.56l-.63-1.34a2.36,2.36,0,0,1-.12-.28.33.33,0,0,1,.16-.43c.15,0,.19.16.24.27.44.92.87,1.85,1.3,2.77a3.24,3.24,0,0,0,.2.36.14.14,0,0,0,.21.06.16.16,0,0,0,.09-.21,3.13,3.13,0,0,0-.15-.32c-.47-1-.94-2-1.4-3-.06-.14-.27-.32-.07-.44s.37.09.47.28.29.61.44.92c.33.72.68,1.44,1,2.17a3.29,3.29,0,0,1,.14.4A.58.58,0,0,1,45.52,6.54Z"/><path class="cls-5" d="M6.64,5.76C6.33,5.12,6,4.47,5.73,3.83c-.11-.24-.21-.32-.44-.11a1.6,1.6,0,0,1-1.13.4l-2,0a1.73,1.73,0,0,0-2,1.34A1,1,0,0,0,.61,6.86,1,1,0,0,0,2,6.3c.24-.49.46-1,.7-1.47.06-.14.11-.27.3-.31a.89.89,0,0,1,1.19.59c.16.34.33.67.48,1S5.13,7,5.71,7s.84-.46.94-1ZM2.16,5c-.18.41-.37.8-.57,1.2a.59.59,0,0,1-.84.33.57.57,0,0,1-.28-.82c.18-.41.28-.91,1-1.07L.9,5.78c-.05.11-.1.23,0,.31s.23,0,.28-.15c.18-.36.36-.73.52-1.1s.24-.42.49-.29S2.22,4.85,2.16,5Zm3.7,1.55a.5.5,0,0,1-.68-.18c-.3-.53-.54-1.09-.81-1.64a.16.16,0,0,1,.09-.24.22.22,0,0,1,.32.14c.19.38.36.77.56,1.15.07.14.11.44.35.32s0-.33,0-.48c-.17-.38-.34-.74-.53-1.11-.09-.18-.07-.34.11-.42s.25.13.3.24a16.13,16.13,0,0,1,.72,1.62A.63.63,0,0,1,5.86,6.53Z"/><path class="cls-6" d="M11,1.13c.62-.48.91-.44,1.33.09l2,2.65c.37.49.74,1,1.1,1.47a1.06,1.06,0,0,0,1.13.58c-.48.45-.83.41-1.23-.11-.77-1-1.52-2-2.28-3-.3-.39-.6-.78-.89-1.18A1,1,0,0,0,11,1.13Z"/><path class="cls-4" d="M16.6.87a.85.85,0,0,0-.87-.79.92.92,0,0,0-1,.63,2.82,2.82,0,0,0-.09.91,3.91,3.91,0,0,1-.09,1.25c-.62-.82-1.18-1.58-1.76-2.33A1,1,0,0,0,11.51.2a1.3,1.3,0,0,1,1.06.64c.94,1.26,1.9,2.53,2.85,3.78a1.78,1.78,0,0,0,.41.45c.35.25.78.08.78-.33C16.64,3.45,16.64,2.16,16.6.87Zm-.5,3.88c-.24,0-.25-.24-.25-.44v-3c0-.16,0-.4-.2-.39s-.17.25-.18.41V4A.83.83,0,0,1,15,3.19c0-.67,0-1.33,0-2,0-.5.25-.78.63-.75s.6.33.6.74c0,1.05,0,2.11,0,3.17C16.27,4.5,16.36,4.76,16.1,4.75Z"/><path class="cls-3" d="M14.73,5.77c-.85-1.11-1.68-2.23-2.52-3.34A2.06,2.06,0,0,0,11.76,2a.47.47,0,0,0-.79.34c0,1.28,0,2.55,0,3.83a1,1,0,0,0,.95.84,1,1,0,0,0,1-.86c0-.34,0-.68,0-1s0-.56,0-.88a.94.94,0,0,1,.45.43c.46.59.91,1.19,1.35,1.79a1,1,0,0,0,1.15.46C15.3,6.72,15.06,6.2,14.73,5.77Zm-2.16,0c0,.4-.13.77-.61.77s-.63-.34-.64-.75c0-1.06,0-2.11,0-3.16,0-.16-.06-.41.18-.4s.28.22.28.43c0,.42,0,.84,0,1.27,0,.59,0,1.19,0,1.78,0,.14-.06.35.18.34s.16-.2.16-.33c0-.68,0-1.36,0-2V3.06a.85.85,0,0,1,.45.75C12.57,4.47,12.58,5.14,12.57,5.8Z"/><path class="cls-7" d="M9.77,1.12a1,1,0,0,0-1-1,1,1,0,0,0-1,1.1c0,.78,0,1.56,0,2.34s0,1.6,0,2.39a1,1,0,0,0,1,1,1,1,0,0,0,1-1C9.79,4.35,9.79,2.74,9.77,1.12ZM9.42,5.79c0,.5-.24.78-.62.78s-.61-.25-.62-.76V1.21c0-.41.14-.71.58-.76s.65.27.66.74c0,.79,0,1.57,0,2.35S9.43,5,9.42,5.79Z"/><path class="cls-5" d="M4.63,1.54A7.7,7.7,0,0,0,4.2.62a1,1,0,0,0-1.76,0c-.38.74-.72,1.5-1.12,2.36a11,11,0,0,1,2-.09,2.37,2.37,0,0,0,.7-.1A.9.9,0,0,0,4.63,1.54Zm-1,.92c-.07.11-.57.18-.65,0s.2-.56.33-1C3.48,1.89,3.79,2.15,3.63,2.46Zm.59-.25C4.05,2.28,4,2.11,4,2l-.42-.87c-.17-.32-.34-.31-.49,0s-.36.73-.52,1.11-.27.33-.59.21c.28-.58.52-1.12.8-1.65a.57.57,0,0,1,1-.2,2.82,2.82,0,0,1,.6,1.27A.26.26,0,0,1,4.22,2.21Z"/><path class="cls-5" d="M30.47,5.22a14.79,14.79,0,0,0-1-1.2c-.35-.36-.4-.63,0-1a12.72,12.72,0,0,0,1.06-1.25A1,1,0,0,0,30.42.28,1,1,0,0,0,29,.49c-.34.38-.67.78-1,1.18-.18.22-.32.25-.51,0-.33-.41-.68-.8-1-1.21a1.16,1.16,0,0,0-.79-.41,1,1,0,0,0-.87.54.93.93,0,0,0,.12,1.1c.4.5.81,1,1.25,1.48.23.26.22.43,0,.68-.42.46-.82.95-1.2,1.45a1,1,0,0,0,.12,1.45,1,1,0,0,0,1.4-.22q.53-.59,1-1.2c.18-.23.31-.21.48,0q.48.6,1,1.17a1,1,0,1,0,1.51-1.28ZM25.29,1.56a.71.71,0,0,1-.23-.49.57.57,0,0,1,.3-.55.51.51,0,0,1,.66,0c.46.49.89,1,1.34,1.53.11.13.07.25-.06.35s-.21,0-.29-.09c-.36-.43-.72-.86-1.09-1.28-.09-.1-.19-.3-.36-.15s0,.28.09.38l1.11,1.33c.12.15.2.29,0,.44s-.26-.06-.34-.15C26.05,2.48,25.67,2,25.29,1.56ZM30.2,6.42c-.3.28-.66.2-1-.21s-.78-.89-1.15-1.36c-.24-.29-.42-.28-.65,0-.39.48-.8,1-1.21,1.44a.62.62,0,1,1-.94-.8l4-4.8A.61.61,0,0,1,30,.48a.53.53,0,0,1,.38.56.77.77,0,0,1-.25.57c-.43.51-.84,1-1.29,1.52a.48.48,0,0,0,0,.74c.46.5.88,1,1.32,1.56C30.42,5.75,30.55,6.08,30.2,6.42Z"/><path class="cls-4" d="M29.81,6.12c-.16,0-.24-.14-.32-.24-.47-.54-.94-1.08-1.38-1.64-.26-.35-.44-.44-.74,0-.44.59-.93,1.13-1.41,1.68-.1.12-.2.35-.4.17s0-.28.11-.39q1.93-2.31,3.88-4.61c.08-.1.18-.26.33-.15s0,.27-.05.39c-.52.61-1,1.24-1.55,1.83-.27.3-.24.49,0,.77.53.59,1,1.22,1.55,1.83.08.09.17.18.09.31S29.85,6.1,29.81,6.12Z"/><path class="cls-2" d="M9,3.51V5.69c0,.17,0,.4-.21.4s-.18-.24-.18-.4c0-1.46,0-2.91,0-4.37,0-.16,0-.4.19-.4s.19.24.2.4Z"/><path class="cls-7" d="M34,3.56h0c0-.83,0-1.66,0-2.5a.92.92,0,0,0-1-.93A.85.85,0,0,0,32,1C32,2.69,32,4.33,32,6a.87.87,0,0,0,.42.81,1,1,0,0,0,1.54-.89C34,5.12,34,4.34,34,3.56Zm-.38-.07V5.84c0,.41-.15.72-.6.73s-.63-.3-.64-.71c0-1.56,0-3.13,0-4.7,0-.4.2-.71.64-.7s.6.31.6.73C33.56,2,33.57,2.72,33.57,3.49Z"/><path class="cls-2" d="M33.15,3.5c0,.75,0,1.49,0,2.24,0,.15,0,.35-.18.36s-.21-.19-.21-.34V1.27c0-.15,0-.35.2-.35s.19.23.19.39C33.15,2,33.15,2.77,33.15,3.5Z"/></g></g></svg>