<svg xmlns="http://www.w3.org/2000/svg" viewBox="0 0 46.38 28.11"><defs><style>.cls-1,.cls-2,.cls-3,.cls-4,.cls-5,.cls-6,.cls-7,.cls-8{stroke:#26dafd;stroke-miterlimit:10;stroke-width:0.1px;}.cls-2{fill:#101f25;}.cls-3{fill:#101d23;}.cls-4{fill:#101820;}.cls-5{fill:#101a21;}.cls-6{fill:#101921;}.cls-7{fill:#101a22;}.cls-8{fill:#101b22;}</style></defs><g id="Layer_2" data-name="Layer 2"><g id="Layer_1-2" data-name="Layer 1"><path class="cls-1" d="M24,13.1a.27.27,0,0,1,.37.13h0a1.74,1.74,0,0,1-.49,2.09l0,0a.28.28,0,0,1-.4,0,.3.3,0,0,1,0-.41l0,0,0,0a1.17,1.17,0,0,0,.33-1.4A.27.27,0,0,1,24,13.1Z"/><path class="cls-1" d="M31.28,14.53H25A.29.29,0,0,1,25,14h6V12.82H25a.28.28,0,1,1,0-.56h.57v-2H25a.29.29,0,0,1,0-.57h6V.62h-13V4.46l2,.21,2.38-.17a.4.4,0,0,1,.15,0l.44.2-.5-.58h0a3.42,3.42,0,0,1-.56-1.6A3.33,3.33,0,0,0,20,4.16a.3.3,0,0,1-.39.12.28.28,0,0,1-.12-.38h0a4,4,0,0,1,2.56-2h0a3.81,3.81,0,0,1,.95-.12,4,4,0,0,1,1.84.46h0a4.05,4.05,0,0,1,1.45,1.31h0A4,4,0,0,1,25.25,9l-.08.05a.29.29,0,0,1-.16,0,.28.28,0,0,1-.28-.28.17.17,0,0,1,0-.07l-.28-.25-.6,2.09-1.19,4.9a.86.86,0,0,1-1,.63l-.11,0L21.21,16a.86.86,0,0,1-.65.31H20.5L17,16.07a1.27,1.27,0,0,1-1.14.72h-.17a.29.29,0,0,1-.29-.28V14.34a.28.28,0,0,1,.26-.29l.94-.06L19,13.72a9.3,9.3,0,0,1,.64-4.41l.74-2.37-.86-.32L17.94,6.2V9.7h.57a.29.29,0,0,1,0,.57h-.86a.29.29,0,0,1-.28-.29V6.06h0l-.48.26a.57.57,0,0,1-.77-.23A.59.59,0,0,1,16,5.79l-.08,0a.66.66,0,0,1-.8-.47.63.63,0,0,1,.15-.6,1.51,1.51,0,0,1,1.63-.43l.16.06.3,0V.33a.29.29,0,0,1,.28-.28H31.28a.28.28,0,0,1,.28.28V10a.28.28,0,0,1-.28.29H26.17v2h5.11a.27.27,0,0,1,.28.28v1.7A.28.28,0,0,1,31.28,14.53ZM22.41,2.38a2.85,2.85,0,0,0,.33,1.22,5.19,5.19,0,0,0,1.61-1,3.47,3.47,0,0,0-1.3-.26A3.39,3.39,0,0,0,22.41,2.38Zm2.44.46A4.66,4.66,0,0,1,23.1,4.07l.37.43a.28.28,0,0,1,.05.29l-.21.56a.32.32,0,0,0,.6.22L24.12,5a.27.27,0,0,1,.19-.18l.94-.23h0c.12,0,.35-.5.45-.73a.75.75,0,0,1,.07-.12A3.58,3.58,0,0,0,24.85,2.84ZM21.74,15.58a.27.27,0,0,0,.36-.16l0,0L23,11.62l-.63.74-1,3.11ZM16,16.22a.71.71,0,0,0,.54-.48l-.15-1.16-.4,0Zm3.44-1.35h0a.28.28,0,0,1-.28-.26c0-.11,0-.21,0-.32l-2.15.24.13,1,3.5.22a.28.28,0,0,0,.29-.2l.69-2.25a.27.27,0,0,1-.26-.06.28.28,0,0,1,0-.4h0l.69-.79h0l1.17-1.33-3-.94a11.34,11.34,0,0,0-.44,4.81A.28.28,0,0,1,19.39,14.87ZM20.87,6.5a.28.28,0,0,1,.17.35L20.3,9.23l3.09,1,.74-2.56a.28.28,0,0,1,.35-.2.29.29,0,0,1,.2.35l0,.14.52.46a2.87,2.87,0,0,0,.55-.55L24.66,6.35l-.44-.25a.88.88,0,0,1-1.48-.82l-.44-.21-2.13.16-.2.93ZM17,4.93h-.06l-.19-.07a.94.94,0,0,0-1,.27.09.09,0,0,0,0,.12.08.08,0,0,0,.08,0l.47-.12a.29.29,0,0,1,.35.2.28.28,0,0,1,0,.09l0,.38.57-.31a.31.31,0,0,1,.21,0L19.43,6l.17-.79Z"/><path class="cls-1" d="M15.39,6.51v0a1.17,1.17,0,0,0,.83,1.19.28.28,0,0,1-.09.55H16a1.74,1.74,0,0,1-1.22-1.76v0a.29.29,0,1,1,.57,0Z"/><path class="cls-2" d="M1.12,24.86a1.12,1.12,0,0,1,1-.45c.44,0,.89,0,1.33,0A2.22,2.22,0,0,0,5,24c-.13.5-.44.73-1.07.76s-1,0-1.48,0A9.05,9.05,0,0,0,1.12,24.86Z"/><path class="cls-3" d="M17.91,25.17a.75.75,0,0,1,.79-.74c1.22,0,2.45,0,3.67,0,.14,0,.31,0,.29.2s-.21.19-.36.19H19.09A1.36,1.36,0,0,0,17.91,25.17Z"/><path class="cls-4" d="M22.41,26.08H20.27c-.19,0-.46.08-.45-.25s.26-.21.43-.22c.71,0,1.43,0,2.14,0a1,1,0,1,0,0-2h-2.1c-.18,0-.46.09-.46-.24s.29-.23.46-.23c.73,0,1.47,0,2.2,0a1,1,0,1,0,0-1.95H18.86a1,1,0,0,0-1,1c0,.72,0,1.43,0,2.25.3-.21.5-.43.78-.43,1.33,0,2.65,0,4,0a.54.54,0,0,1,.54.58.56.56,0,0,1-.54.62,2.9,2.9,0,0,1-.51,0H18.94a1,1,0,0,0-1.13,1.1,5.63,5.63,0,0,0,0,.71,1,1,0,0,0,1.06,1h3.53a1,1,0,0,0,1.07-1A1,1,0,0,0,22.41,26.08Zm-3-2.87c0,.15,0,.38-.22.37s-.2-.23-.21-.39,0-.27,0-.41c0-.32.1-.45.44-.44.92,0,1.84,0,2.76,0,.17,0,.44.08.43-.2s-.25-.18-.41-.18H19.09c-.35,0-.49.13-.47.48s0,.65,0,1a.24.24,0,0,1-.27.29c-.23,0-.14-.19-.14-.3,0-.36,0-.72,0-1.07,0-.57.21-.78.77-.79s1.16,0,1.74,0h1.68c.42,0,.72.19.72.63s-.31.6-.72.61c-.82,0-1.64,0-2.45,0C19.62,22.77,19.4,22.82,19.42,23.21Zm2.89,4.46H18.94c-.54,0-.72-.21-.74-.75,0-.24,0-.48,0-.72s.09-.41.42-.51c0,.4,0,.75,0,1.1s.09.47.43.46c1.08,0,2.15,0,3.22,0,.16,0,.37,0,.38-.17s-.22-.22-.38-.22H19.46c-.17,0-.42.08-.45-.2a1.79,1.79,0,0,1,0-1s.16,0,.24,0,.13.15.12.24c-.08.54.25.57.65.56.75,0,1.5,0,2.25,0,.42,0,.75.13.79.6S22.85,27.67,22.31,27.67Z"/><path class="cls-5" d="M37.54,21.93a1.15,1.15,0,0,1,1.35.81c.48,1.07,1,2.13,1.5,3.19l.29.57A.91.91,0,0,0,41,26c.55-1.15,1.09-2.31,1.64-3.46a1,1,0,0,1,.79-.64.49.49,0,0,1,.6.31c-.77-.15-1,.36-1.25.89-.55,1.18-1.11,2.37-1.68,3.55-.09.19-.12.49-.36.51s-.31-.33-.41-.53c-.6-1.24-1.18-2.49-1.78-3.73-.11-.23-.17-.53-.51-.57a.66.66,0,0,0-.47-.14c-.09,0-.23.07-.23-.08S37.47,22,37.54,21.93Z"/><path class="cls-5" d="M40.74,24.69c.48-1,.91-1.94,1.35-2.85a.94.94,0,0,1,1.31-.55,1.45,1.45,0,0,0-1.14,1c-.4.9-.83,1.78-1.26,2.67-.07.14-.07.38-.29.37s-.22-.24-.29-.39c-.39-.83-.77-1.66-1.16-2.5s-.38-.82-1.06-1.2a.82.82,0,0,1,1.11.49c.42.83.8,1.68,1.21,2.53Z"/><path class="cls-6" d="M46.27,26.8a40.14,40.14,0,0,0-1.7-3.64.72.72,0,0,0-1.24-.08,2.31,2.31,0,0,0-.28.48L41.4,27.07c-.14.3-.28.59-.68.59s-.54-.3-.68-.6c-.54-1.14-1.07-2.28-1.6-3.42a3,3,0,0,0-.49-.77c-.76-.19-.88-.16-1.23.55-.53,1.06-1,2.14-1.5,3.22a.93.93,0,0,0,.47,1.3A1,1,0,0,0,37,27.4c.2-.43.42-.85.63-1.27l.76-1.66c.47,1,.9,1.9,1.3,2.79a1.09,1.09,0,0,0,1,.77,1.07,1.07,0,0,0,1-.78c.41-.89.84-1.77,1.27-2.68a1.52,1.52,0,0,1,.39.64c.37.77.72,1.55,1.1,2.3A.93.93,0,0,0,45.7,28,1,1,0,0,0,46.27,26.8Zm-8.2-2.47c-.46,1-.89,1.91-1.35,2.86-.21.45-.56.6-.89.4a.62.62,0,0,1-.22-.92L37,23.62a1.38,1.38,0,0,1,.14-.27c.1-.12.23-.25.39-.15s0,.24,0,.35c-.43.93-.87,1.85-1.3,2.77a3.89,3.89,0,0,0-.19.42c-.06.15-.23.34,0,.43s.26-.16.33-.3c.47-1,.93-2,1.39-2.95,0-.08.1-.17.17-.29A.55.55,0,0,1,38.07,24.33Zm7.45,3.3a.56.56,0,0,1-.72-.3c-.27-.52-.51-1-.76-1.56l-.63-1.34c0-.09-.09-.19-.12-.28a.32.32,0,0,1,.16-.43c.15,0,.19.16.24.27.44.92.87,1.84,1.3,2.76a2.08,2.08,0,0,0,.2.36.14.14,0,0,0,.21.07.16.16,0,0,0,.09-.21,3.31,3.31,0,0,0-.15-.33c-.47-1-.94-2-1.4-3-.06-.14-.27-.32-.07-.44s.37.09.47.28.29.61.44.92c.33.72.68,1.44,1,2.16.07.16.11.32.14.4A.6.6,0,0,1,45.52,27.63Z"/><path class="cls-6" d="M6.64,26.85c-.31-.65-.62-1.29-.91-1.94-.11-.23-.21-.31-.44-.1a1.65,1.65,0,0,1-1.13.4h-2a1.75,1.75,0,0,0-2,1.34,1,1,0,0,0,.46,1.38A1,1,0,0,0,2,27.38c.24-.48.46-1,.7-1.47.06-.13.11-.26.3-.31a.89.89,0,0,1,1.19.6c.16.34.33.67.48,1s.51.87,1.09.82.84-.45.94-1Zm-4.48-.78c-.18.4-.37.8-.57,1.19a.59.59,0,0,1-.84.34.57.57,0,0,1-.28-.82c.18-.42.28-.92,1-1.08L.9,26.87c-.05.11-.1.23,0,.31s.23,0,.28-.15c.18-.36.36-.73.52-1.1s.24-.43.49-.29S2.22,25.93,2.16,26.07Zm3.7,1.55a.52.52,0,0,1-.68-.18c-.3-.53-.54-1.09-.81-1.64a.16.16,0,0,1,.09-.24.22.22,0,0,1,.32.14c.19.38.36.77.56,1.14.07.15.11.45.35.32s0-.32,0-.48c-.17-.37-.34-.74-.53-1.1-.09-.18-.07-.34.11-.43s.25.13.3.25A16,16,0,0,1,6.26,27,.63.63,0,0,1,5.86,27.62Z"/><path class="cls-7" d="M11,22.22c.62-.48.91-.44,1.33.09l2,2.65c.37.49.74,1,1.1,1.47a1.05,1.05,0,0,0,1.13.57c-.48.45-.83.41-1.23-.1-.77-1-1.52-2-2.28-3-.3-.4-.6-.78-.89-1.19A1,1,0,0,0,11,22.22Z"/><path class="cls-5" d="M16.6,22a.85.85,0,0,0-.87-.79.94.94,0,0,0-1,.64,2.79,2.79,0,0,0-.09.91A3.83,3.83,0,0,1,14.56,24c-.62-.81-1.18-1.57-1.76-2.32a1,1,0,0,0-1.29-.34,1.28,1.28,0,0,1,1.06.64c.94,1.26,1.9,2.52,2.85,3.78a2,2,0,0,0,.41.45c.35.25.78.08.78-.33C16.64,24.54,16.64,23.24,16.6,22Zm-.5,3.89c-.24,0-.25-.25-.25-.44v-3c0-.16,0-.4-.2-.4s-.17.26-.18.41V25a.85.85,0,0,1-.44-.77c0-.66,0-1.32,0-2,0-.5.25-.78.63-.74s.6.33.6.74c0,1,0,2.11,0,3.16C16.27,25.59,16.36,25.84,16.1,25.84Z"/><path class="cls-4" d="M14.73,26.86c-.85-1.11-1.68-2.23-2.52-3.34a2.1,2.1,0,0,0-.45-.49.48.48,0,0,0-.79.35c0,1.27,0,2.55,0,3.82a1,1,0,0,0,.95.84,1,1,0,0,0,1-.86c0-.33,0-.68,0-1s0-.56,0-.88a1,1,0,0,1,.45.44c.46.59.91,1.19,1.35,1.79A1,1,0,0,0,15.9,28C15.3,27.81,15.06,27.29,14.73,26.86Zm-2.16,0c0,.41-.13.77-.61.78s-.63-.34-.64-.76q0-1.57,0-3.15c0-.16-.06-.41.18-.4s.28.21.28.42c0,.43,0,.85,0,1.28,0,.59,0,1.18,0,1.78,0,.13-.06.35.18.33s.16-.19.16-.32c0-.68,0-1.36,0-2v-.65a.85.85,0,0,1,.45.75C12.57,25.56,12.58,26.22,12.57,26.88Z"/><path class="cls-8" d="M9.77,22.21a1,1,0,0,0-1-1,1,1,0,0,0-1,1.09c0,.78,0,1.56,0,2.35s0,1.59,0,2.39a1,1,0,0,0,1,1.05,1,1,0,0,0,1-1C9.79,25.44,9.79,23.82,9.77,22.21Zm-.35,4.67c0,.5-.24.77-.62.78s-.61-.26-.62-.77V22.3c0-.41.14-.71.58-.76s.65.27.66.74c0,.78,0,1.57,0,2.35S9.43,26.13,9.42,26.88Z"/><path class="cls-6" d="M4.63,22.63a7.84,7.84,0,0,0-.43-.93,1,1,0,0,0-1.76,0c-.38.74-.72,1.5-1.12,2.35a11.92,11.92,0,0,1,2-.09,1.86,1.86,0,0,0,.7-.1A.88.88,0,0,0,4.63,22.63Zm-1,.91c-.07.12-.57.19-.65,0s.2-.55.33-1C3.48,23,3.79,23.23,3.63,23.54Zm.59-.25c-.17.07-.18-.1-.23-.19l-.42-.87c-.17-.33-.34-.31-.49,0s-.36.74-.52,1.11-.27.34-.59.21c.28-.57.52-1.12.8-1.64a.56.56,0,0,1,1-.2A2.82,2.82,0,0,1,4.33,23,.25.25,0,0,1,4.22,23.29Z"/><path class="cls-6" d="M30.47,26.31c-.33-.41-.66-.83-1-1.21s-.4-.62,0-1a13.87,13.87,0,0,0,1.06-1.24,1,1,0,0,0-.06-1.5,1,1,0,0,0-1.44.22q-.51.57-1,1.17c-.18.23-.32.26-.51,0-.33-.41-.68-.81-1-1.21a1.08,1.08,0,0,0-.79-.41,1,1,0,0,0-.87.54.92.92,0,0,0,.12,1.09c.4.51.81,1,1.25,1.49.23.25.22.43,0,.68-.42.46-.82.95-1.2,1.45a1,1,0,0,0,.12,1.44,1,1,0,0,0,1.4-.21c.35-.39.69-.79,1-1.21.18-.22.31-.2.48,0q.48.58,1,1.17a1,1,0,1,0,1.51-1.28Zm-5.18-3.66a.71.71,0,0,1-.23-.49.56.56,0,0,1,.3-.55.51.51,0,0,1,.66,0c.46.5.89,1,1.34,1.54.11.13.07.25-.06.35s-.21,0-.29-.1c-.36-.42-.72-.85-1.09-1.27-.09-.11-.19-.3-.36-.15s0,.27.09.38l1.11,1.33c.12.14.2.28,0,.44s-.26-.06-.34-.16C26.05,23.57,25.67,23.11,25.29,22.65Zm4.91,4.86c-.3.27-.66.2-1-.21s-.78-.9-1.15-1.36c-.24-.3-.42-.28-.65,0-.39.49-.8,1-1.21,1.45a.6.6,0,0,1-.94.1.59.59,0,0,1,0-.9c1.34-1.61,2.69-3.21,4-4.8a.6.6,0,0,1,.73-.22.53.53,0,0,1,.38.55.77.77,0,0,1-.25.58c-.43.5-.84,1-1.29,1.51a.49.49,0,0,0,0,.75c.46.5.88,1,1.32,1.56C30.42,26.83,30.55,27.17,30.2,27.51Z"/><path class="cls-5" d="M29.81,27.21a.5.5,0,0,1-.32-.24c-.47-.55-.94-1.08-1.38-1.65-.26-.35-.44-.43-.74,0-.44.58-.93,1.13-1.41,1.68-.1.11-.2.35-.4.16s0-.28.11-.38q1.93-2.31,3.88-4.61c.08-.1.18-.26.33-.15s0,.27-.05.38c-.52.62-1,1.25-1.55,1.84-.27.29-.24.48,0,.76.53.6,1,1.22,1.55,1.84.08.09.17.18.09.31S29.85,27.18,29.81,27.21Z"/><path class="cls-3" d="M9,24.59v2.19c0,.17,0,.4-.21.4s-.18-.25-.18-.4q0-2.19,0-4.38c0-.16,0-.39.19-.39s.19.23.2.4Z"/><path class="cls-8" d="M34,24.65h0c0-.83,0-1.67,0-2.5a.91.91,0,0,0-1-.93.84.84,0,0,0-.92.91c0,1.64,0,3.29,0,4.94a.88.88,0,0,0,.42.81A1,1,0,0,0,33.94,27C34,26.21,34,25.43,34,24.65Zm-.38-.08v2.35c0,.41-.15.72-.6.73s-.63-.3-.64-.7c0-1.57,0-3.13,0-4.7,0-.41.2-.72.64-.7s.6.3.6.73C33.56,23,33.57,23.81,33.57,24.57Z"/><path class="cls-3" d="M33.15,24.59c0,.74,0,1.49,0,2.24,0,.15,0,.35-.18.35s-.21-.19-.21-.34V22.36c0-.15,0-.35.2-.35s.19.23.19.39C33.15,23.13,33.15,23.86,33.15,24.59Z"/></g></g></svg>