<svg xmlns="http://www.w3.org/2000/svg" viewBox="0 0 143.16 86.68"><defs><style>.cls-1,.cls-2,.cls-3,.cls-4,.cls-5,.cls-6,.cls-7,.cls-8{stroke:#26dafd;stroke-miterlimit:10;stroke-width:0.1px;}.cls-2{fill:#101f25;}.cls-3{fill:#101d23;}.cls-4{fill:#101820;}.cls-5{fill:#101a21;}.cls-6{fill:#101921;}.cls-7{fill:#101a22;}.cls-8{fill:#101b22;}</style></defs><g id="Layer_2" data-name="Layer 2"><g id="Layer_1-2" data-name="Layer 1"><path class="cls-1" d="M74.05,40.38a.87.87,0,0,1,1.16.43h0a5.37,5.37,0,0,1-1.52,6.43l-.09.07A.88.88,0,0,1,72.4,46l.11-.09.09-.07a3.61,3.61,0,0,0,1-4.33.87.87,0,0,1,.43-1.16Z"/><path class="cls-1" d="M96.59,44.8H77.28a.88.88,0,0,1,0-1.75H95.71V39.54H77.28a.88.88,0,0,1,0-1.76H79V31.64H77.28a.88.88,0,0,1,0-1.76H95.71V1.8H55.35V13.69l6.21.65,7.38-.54a.85.85,0,0,1,.44.09l1.37.64-1.56-1.82h0a10.59,10.59,0,0,1-1.73-4.95,10.59,10.59,0,0,0-5.64,5A.88.88,0,0,1,60.23,12v0a12.27,12.27,0,0,1,7.9-6.23l.06,0a12.66,12.66,0,0,1,2.94-.37,12.16,12.16,0,0,1,5.7,1.42h0a12.34,12.34,0,0,1,4.5,4v0a12.26,12.26,0,0,1-3.42,17l-.26.16a.87.87,0,0,1-1.34-.72,1,1,0,0,1,0-.24l-.86-.76-1.86,6.46L70,47.88a2.63,2.63,0,0,1-3.18,1.93,2.13,2.13,0,0,1-.33-.11l-1-.38a2.61,2.61,0,0,1-2,1h-.17l-10.91-.7a3.94,3.94,0,0,1-3.5,2.23h-.54a.87.87,0,0,1-.88-.87l-.05-6.73a.88.88,0,0,1,.82-.88l2.89-.19,7.65-.83c-.26-9,1.62-13,2-13.66L63,21.34l-2.67-1-5-1.27v10.8H57.1a.88.88,0,1,1,0,1.76H54.47a.87.87,0,0,1-.88-.88V18.63l-.13,0L52,19.4a1.76,1.76,0,0,1-2.38-.7,1.83,1.83,0,0,1-.21-.92l-.26.07a2,2,0,0,1-2-3.3,4.7,4.7,0,0,1,5.05-1.32l.48.17.94.1V.93a.87.87,0,0,1,.88-.88H96.59a.88.88,0,0,1,.88.88V30.76a.88.88,0,0,1-.88.88H80.79v6.14h15.8a.88.88,0,0,1,.88.88v5.26A.88.88,0,0,1,96.59,44.8ZM69.18,7.26a8.78,8.78,0,0,0,1,3.78,15.89,15.89,0,0,0,5-3.17,10.48,10.48,0,0,0-4-.8A9.94,9.94,0,0,0,69.18,7.26Zm7.54,1.42c-1.14,1.65-3.81,3.05-5.43,3.79l1.15,1.35a.86.86,0,0,1,.16.87L72,16.44a1,1,0,0,0,.63,1.24,1,1,0,0,0,1.22-.56l.64-1.74a.9.9,0,0,1,.62-.55L78,14.12l.11,0c.39-.11,1.09-1.57,1.42-2.27.06-.13.12-.26.19-.39A10.78,10.78,0,0,0,76.72,8.68ZM67.09,48.07a.88.88,0,0,0,1.14-.5l0-.11L71.1,35.82l-2,2.27-2.95,9.62ZM49.2,50a2.19,2.19,0,0,0,1.69-1.47L50.42,45,49.16,45Zm10.62-4.14h-.06a.88.88,0,0,1-.88-.82c0-.34,0-.65-.05-1l-6.66.72.39,3,10.82.69a.88.88,0,0,0,.9-.61l2.14-7a.84.84,0,0,1-.79-.18.86.86,0,0,1-.09-1.23h0l2.12-2.45h0L71.26,33,62,30.07c-.62,1.57-2,6.16-1.38,14.87A.88.88,0,0,1,59.82,45.88ZM64.41,20a.88.88,0,0,1,.53,1.09l-2.3,7.36,9.58,3L74.5,23.5a.88.88,0,1,1,1.68.49l-.12.42,1.62,1.43a10.8,10.8,0,0,0,1.69-1.69l-3.25-4.61-1.36-.79a2.72,2.72,0,0,1-4.56-2.54l-1.37-.64-6.57.48L61.63,19Zm-12-4.84a.59.59,0,0,1-.19-.05l-.58-.2a3,3,0,0,0-3.17.83.26.26,0,0,0,.26.43l1.44-.37a.87.87,0,0,1,1.07.62.72.72,0,0,1,0,.29l-.08,1.17,1.77-1a1,1,0,0,1,.64-.08L60,18.44,60.47,16Z"/><path class="cls-1" d="M47.46,20v.11A3.62,3.62,0,0,0,50,23.78a.88.88,0,0,1-.26,1.72,1.26,1.26,0,0,1-.27,0A5.37,5.37,0,0,1,45.7,20v-.11a.88.88,0,1,1,1.75.1Z"/><path class="cls-2" d="M3.35,76.73a3.49,3.49,0,0,1,3.14-1.37c1.36-.07,2.73,0,4.09,0,2.7,0,2.85,0,4.9-1.19-.42,1.54-1.37,2.26-3.32,2.35-1.52.07-3,0-4.56,0A33.88,33.88,0,0,0,3.35,76.73Z"/><path class="cls-3" d="M55.26,77.71a2.29,2.29,0,0,1,2.45-2.28c3.78-.08,7.56-.06,11.34-.07.42,0,1,.06.9.62s-.66.57-1.12.57c-3.31,0-6.62,0-9.93,0C57.57,76.54,56.26,76.56,55.26,77.71Z"/><path class="cls-4" d="M69.18,80.53c-2.21,0-4.42,0-6.63,0-.58,0-1.41.23-1.38-.79s.81-.66,1.32-.67c2.21,0,4.42,0,6.63,0,2,0,3.35-1.25,3.38-3S71.19,73,69.07,73s-4.31,0-6.47,0c-.57,0-1.43.26-1.43-.75s.88-.7,1.43-.71c2.26,0,4.53.05,6.79,0a3,3,0,0,0,3.08-3.1,2.93,2.93,0,0,0-3.21-2.94c-3.68,0-7.37-.05-11.05,0A3,3,0,0,0,55,68.5c-.08,2.21,0,4.41,0,6.93.91-.65,1.53-1.31,2.4-1.32,4.11,0,8.21-.08,12.31,0a1.68,1.68,0,0,1,1.67,1.78,1.77,1.77,0,0,1-1.68,1.94,11.78,11.78,0,0,1-1.57.06c-3.21,0-6.42,0-9.63,0a3.17,3.17,0,0,0-3.5,3.4,16.32,16.32,0,0,0,0,2.21,3.1,3.1,0,0,0,3.29,3.11c3.63,0,7.27,0,10.9,0a3.05,3.05,0,0,0,3.31-3C72.49,81.75,71.25,80.57,69.18,80.53Zm-9.25-8.89c0,.48.13,1.17-.68,1.15s-.61-.72-.65-1.2,0-.85,0-1.27c-.09-1,.33-1.38,1.37-1.36,2.84.05,5.69,0,8.53,0,.52,0,1.35.23,1.33-.63s-.78-.56-1.27-.56c-3.21,0-6.42,0-9.64,0-1.09,0-1.52.39-1.45,1.49s0,2,0,3a.78.78,0,0,1-.85.9c-.7,0-.43-.6-.44-.94,0-1.11,0-2.21,0-3.32,0-1.74.65-2.39,2.37-2.42s3.59,0,5.38,0,3.47,0,5.21,0c1.28,0,2.2.59,2.22,1.93s-1,1.89-2.23,1.9c-2.53,0-5.06,0-7.58,0C60.55,70.27,59.86,70.43,59.93,71.64Zm8.94,13.8q-5.2,0-10.43,0c-1.66,0-2.23-.64-2.28-2.33,0-.73,0-1.47,0-2.21a1.56,1.56,0,0,1,1.29-1.6c0,1.23,0,2.32,0,3.4s.28,1.46,1.34,1.45c3.32,0,6.64,0,10,0,.47,0,1.12.07,1.16-.52,0-.75-.66-.68-1.17-.68-2.89,0-5.79,0-8.69,0-.52,0-1.3.27-1.39-.59a5.51,5.51,0,0,1,.17-3.09c.06-.12.49-.14.72-.09.39.09.42.47.38.77-.24,1.66.76,1.74,2,1.71,2.32-.05,4.64,0,7,0,1.3,0,2.33.38,2.46,1.86C71.46,84.69,70.53,85.43,68.87,85.44Z"/><path class="cls-5" d="M116,67.67c2.09-.31,3.33.64,4.17,2.53,1.47,3.31,3.08,6.56,4.64,9.84.26.56.55,1.11.88,1.76a2.56,2.56,0,0,0,1-1.45c1.7-3.55,3.39-7.12,5.07-10.68a3.16,3.16,0,0,1,2.45-2,1.51,1.51,0,0,1,1.85,1c-2.37-.48-3.1,1.12-3.85,2.73q-2.56,5.5-5.19,11c-.28.59-.38,1.54-1.14,1.58s-1-1-1.25-1.62c-1.86-3.83-3.65-7.69-5.49-11.53-.35-.73-.54-1.65-1.58-1.78a2.08,2.08,0,0,0-1.47-.41c-.27,0-.72.19-.71-.27C115.35,68.11,115.74,67.89,116,67.67Z"/><path class="cls-5" d="M125.84,76.23c1.48-3.15,2.81-6,4.18-8.83.88-1.82,1.95-2.29,4-1.69-2,.31-2.84,1.64-3.52,3.17-1.24,2.79-2.57,5.53-3.9,8.27-.21.43-.22,1.19-.9,1.13s-.68-.74-.89-1.2c-1.22-2.56-2.4-5.14-3.6-7.71s-1.18-2.56-3.26-3.73a2.51,2.51,0,0,1,3.41,1.51c1.29,2.58,2.49,5.21,3.73,7.82C125.3,75.29,125.49,75.6,125.84,76.23Z"/><path class="cls-6" d="M142.94,82.75a115.42,115.42,0,0,0-5.28-11.27,2.2,2.2,0,0,0-3.81-.23,6.92,6.92,0,0,0-.87,1.49q-2.56,5.42-5.1,10.84c-.44.94-.88,1.82-2.12,1.81s-1.67-.93-2.1-1.84c-1.65-3.52-3.31-7-4.94-10.56a8.7,8.7,0,0,0-1.52-2.38c-2.33-.61-2.71-.52-3.8,1.7-1.61,3.27-3.13,6.6-4.63,9.93a2.91,2.91,0,0,0,1.46,4,3,3,0,0,0,4.13-1.7c.63-1.31,1.29-2.61,1.94-3.92.73-1.59,1.46-3.18,2.36-5.12,1.47,3.13,2.78,5.87,4,8.63.63,1.43,1.58,2.42,3.19,2.39s2.39-1.07,3-2.42c1.25-2.76,2.58-5.48,3.91-8.29a4.59,4.59,0,0,1,1.22,2c1.14,2.36,2.2,4.77,3.4,7.11a2.84,2.84,0,0,0,3.75,1.4A2.91,2.91,0,0,0,142.94,82.75Zm-25.36-7.64C116.17,78,114.83,81,113.42,84c-.67,1.39-1.73,1.85-2.77,1.24s-1.22-1.71-.67-2.86c1.48-3.14,2.94-6.28,4.41-9.42a5,5,0,0,1,.45-.82c.3-.4.7-.79,1.19-.49s.1.76-.06,1.11c-1.33,2.86-2.68,5.71-4,8.56-.2.43-.41.85-.58,1.29s-.72,1,0,1.34.82-.51,1-.93c1.46-3,2.88-6.08,4.31-9.12.13-.27.3-.53.51-.92A1.71,1.71,0,0,1,117.58,75.11Zm23,10.2a1.75,1.75,0,0,1-2.26-.94c-.8-1.59-1.56-3.21-2.32-4.83-.66-1.37-1.3-2.75-1.94-4.13a8.16,8.16,0,0,1-.39-.86,1,1,0,0,1,.49-1.34c.48-.16.59.49.75.84,1.36,2.85,2.69,5.7,4,8.55a10.67,10.67,0,0,0,.59,1.11.47.47,0,0,0,.67.21.5.5,0,0,0,.26-.66,9,9,0,0,0-.46-1c-1.44-3.1-2.89-6.19-4.31-9.29-.19-.42-.85-1-.22-1.35s1.14.27,1.44.85c.47.93.9,1.89,1.35,2.84,1.05,2.23,2.11,4.46,3.14,6.71a10.81,10.81,0,0,1,.44,1.23A1.85,1.85,0,0,1,140.63,85.31Z"/><path class="cls-6" d="M20.41,82.89c-.94-2-1.89-4-2.81-6-.34-.73-.64-1-1.35-.32a5,5,0,0,1-3.49,1.23l-6.31.05c-3.53,0-4.81.92-6.08,4.14-.73,1.86-.18,3.54,1.4,4.27s3.22.11,4.14-1.74c.75-1.5,1.45-3,2.18-4.54.2-.42.35-.83.93-1,1.89-.42,2.84,0,3.68,1.83.49,1.05,1,2.07,1.47,3.14.64,1.52,1.59,2.68,3.38,2.53s2.6-1.4,2.91-3ZM6.57,80.48C6,81.73,5.42,83,4.82,84.18a1.82,1.82,0,0,1-2.59,1,1.77,1.77,0,0,1-.89-2.52c.55-1.29.87-2.84,3-3.34-.65,1.43-1.14,2.52-1.64,3.6-.16.35-.32.72.13,1s.7-.12.86-.44c.55-1.13,1.11-2.26,1.6-3.41.31-.72.76-1.32,1.51-.9S6.75,80.07,6.57,80.48ZM18,85.28a1.6,1.6,0,0,1-2.11-.57c-.91-1.64-1.66-3.37-2.49-5.06-.17-.35-.11-.59.27-.75s.8,0,1,.44c.57,1.18,1.1,2.38,1.71,3.54.23.45.33,1.37,1.1,1s.09-1-.12-1.49c-.5-1.15-1.05-2.29-1.61-3.41-.29-.57-.23-1,.34-1.31s.75.4.91.74a43.75,43.75,0,0,1,2.21,5A1.92,1.92,0,0,1,18,85.28Z"/><path class="cls-7" d="M33.84,68.59c1.9-1.48,2.83-1.37,4.1.27,2.09,2.71,4.12,5.46,6.18,8.19,1.14,1.51,2.31,3,3.41,4.55.83,1.15,1.72,2.11,3.49,1.77-1.46,1.39-2.57,1.27-3.79-.31-2.37-3.09-4.7-6.21-7-9.32-.92-1.22-1.86-2.42-2.75-3.66A3.08,3.08,0,0,0,33.84,68.59Z"/><path class="cls-5" d="M51.21,67.76a2.63,2.63,0,0,0-2.68-2.44,2.88,2.88,0,0,0-3.08,2,8.55,8.55,0,0,0-.26,2.8c-.07,1.21.22,2.45-.29,3.86-1.9-2.53-3.65-4.88-5.44-7.2a3,3,0,0,0-4-1,3.9,3.9,0,0,1,3.26,2q4.4,5.86,8.82,11.7a6.72,6.72,0,0,0,1.26,1.39,1.44,1.44,0,0,0,2.43-1C51.33,75.74,51.35,71.75,51.21,67.76Zm-1.56,12c-.73,0-.75-.75-.76-1.34V70.05c0-.32,0-.63,0-1,0-.49.12-1.24-.61-1.21s-.53.78-.54,1.27c0,2.62,0,5.24,0,8.13a2.63,2.63,0,0,1-1.37-2.36c0-2.05,0-4.1,0-6.15,0-1.54.77-2.41,2-2.31,1.37.11,1.85,1,1.85,2.29,0,3.26,0,6.52,0,9.79C50.18,79,50.46,79.78,49.65,79.76Z"/><path class="cls-4" d="M45.43,82.92C42.81,79.49,40.24,76,37.64,72.6a7.06,7.06,0,0,0-1.38-1.5,1.48,1.48,0,0,0-2.45,1.07c-.07,3.94-.07,7.88,0,11.82a2.93,2.93,0,0,0,2.92,2.6,3,3,0,0,0,3-2.67,29.75,29.75,0,0,0,.13-3.14c0-.87,0-1.74,0-2.73a3.21,3.21,0,0,1,1.39,1.34c1.41,1.84,2.79,3.69,4.17,5.55a3.06,3.06,0,0,0,3.56,1.4C47.19,85.86,46.44,84.24,45.43,82.92ZM38.76,83c0,1.25-.4,2.37-1.91,2.38s-1.94-1-2-2.33c0-3.25,0-6.51,0-9.76,0-.48-.17-1.25.58-1.23s.85.67.84,1.31c0,1.32,0,2.63,0,3.94,0,1.84,0,3.67,0,5.51,0,.42-.18,1.09.57,1,.55,0,.48-.61.49-1,0-2.1,0-4.2,0-6.3v-2a2.65,2.65,0,0,1,1.39,2.32C38.76,78.91,38.79,81,38.76,83Z"/><path class="cls-8" d="M30.11,68.55A3,3,0,0,0,27,65.34c-1.76,0-2.95,1.37-3,3.38,0,2.41,0,4.83,0,7.24s0,4.93,0,7.4a3.13,3.13,0,0,0,3,3.24,3,3,0,0,0,3.1-3.09Q30.2,76,30.11,68.55ZM29,83c0,1.54-.73,2.41-1.9,2.41S25.2,84.6,25.19,83c0-4.74,0-9.47,0-14.21,0-1.27.44-2.19,1.8-2.34,1.15-.12,2,.83,2,2.3,0,2.42,0,4.84,0,7.26S29,80.67,29,83Z"/><path class="cls-6" d="M14.2,69.85A21.24,21.24,0,0,0,12.89,67,3,3,0,0,0,7.44,67C6.27,69.32,5.22,71.67,4,74.31A36,36,0,0,1,10.25,74a6.4,6.4,0,0,0,2.17-.3A2.73,2.73,0,0,0,14.2,69.85Zm-3.09,2.82c-.2.37-1.74.57-2,.06-.46-.93.6-1.72,1-3C10.65,70.93,11.62,71.72,11.11,72.67Zm1.83-.76c-.52.21-.56-.31-.71-.61-.44-.9-.86-1.81-1.31-2.7s-1.05-.94-1.52,0c-.55,1.13-1.08,2.28-1.6,3.43-.33.76-.83,1-1.82.64.86-1.77,1.61-3.45,2.47-5.07.7-1.33,2-1.63,3-.63a8.77,8.77,0,0,1,1.86,3.94A.79.79,0,0,1,12.94,71.91Z"/><path class="cls-6" d="M94.08,81.22a45.07,45.07,0,0,0-3.17-3.72c-1.09-1.1-1.24-1.94,0-3.09a38.77,38.77,0,0,0,3.26-3.85c1.33-1.66,1.23-3.48-.19-4.62s-3.09-.89-4.46.66q-1.57,1.79-3,3.63c-.56.71-1,.79-1.59,0-1-1.28-2.09-2.5-3.14-3.75a3.44,3.44,0,0,0-2.46-1.26,3.07,3.07,0,0,0-2.69,1.66,2.91,2.91,0,0,0,.37,3.39c1.25,1.56,2.53,3.1,3.87,4.58.72.79.67,1.33,0,2.11-1.32,1.43-2.55,2.94-3.74,4.48a3,3,0,0,0,.37,4.47c1.36,1.06,3,.83,4.34-.66,1.08-1.22,2.14-2.46,3.16-3.73.55-.69,1-.65,1.47,0,1,1.23,2,2.43,3.06,3.61,1.46,1.65,3.08,1.87,4.57.67S95.43,82.92,94.08,81.22Zm-16-11.3a2.36,2.36,0,0,1-.73-1.53,1.77,1.77,0,0,1,.94-1.7,1.61,1.61,0,0,1,2,.14c1.42,1.54,2.76,3.16,4.12,4.75a.68.68,0,0,1-.16,1.08c-.43.35-.67,0-.9-.29-1.13-1.31-2.23-2.65-3.37-4-.28-.32-.58-.93-1.12-.46s0,.85.29,1.19c1.12,1.38,2.28,2.74,3.43,4.1.37.44.62.88.06,1.35s-.82-.19-1.07-.47C80.42,72.75,79.26,71.32,78.08,69.92Zm15.16,15c-.9.87-2,.62-3.09-.63s-2.41-2.78-3.55-4.21c-.73-.91-1.29-.86-2,0-1.21,1.51-2.48,3-3.75,4.46A1.92,1.92,0,1,1,78,82.08L90.41,67.24a1.88,1.88,0,0,1,2.25-.68,1.67,1.67,0,0,1,1.19,1.73,2.39,2.39,0,0,1-.78,1.77c-1.32,1.57-2.61,3.16-4,4.69a1.45,1.45,0,0,0,0,2.29c1.41,1.56,2.72,3.2,4.06,4.82C93.94,82.84,94.33,83.89,93.24,84.92Z"/><path class="cls-5" d="M92.06,84c-.51,0-.75-.42-1-.73-1.43-1.69-2.9-3.34-4.25-5.09-.83-1.08-1.36-1.35-2.3-.08-1.35,1.81-2.88,3.49-4.36,5.2-.3.35-.6,1.09-1.22.51s.07-.87.34-1.19q6-7.16,12-14.27c.26-.3.55-.8,1-.46s.14.84-.16,1.2C90.51,71,89,72.93,87.31,74.76c-.84.91-.74,1.5,0,2.37C89,79,90.54,80.9,92.14,82.8c.23.28.52.56.28,1C92.35,83.88,92.17,83.93,92.06,84Z"/><path class="cls-3" d="M27.71,75.92c0,2.26,0,4.51,0,6.77,0,.5.06,1.21-.65,1.22s-.56-.76-.56-1.23c0-4.51,0-9,0-13.52,0-.5-.13-1.23.6-1.23s.6.73.61,1.23C27.72,71.41,27.71,73.67,27.71,75.92Z"/><path class="cls-8" d="M104.84,76.09h0c0-2.57.06-5.15,0-7.72-.06-1.88-1.25-2.87-3.2-2.87a2.6,2.6,0,0,0-2.86,2.79c-.06,5.09,0,10.19,0,15.28a2.7,2.7,0,0,0,1.31,2.5,3.07,3.07,0,0,0,4.76-2.74C104.89,80.92,104.84,78.5,104.84,76.09Zm-1.18-.23q0,3.65,0,7.27c0,1.27-.45,2.22-1.85,2.25s-2-.92-2-2.17c0-4.84,0-9.69,0-14.53,0-1.26.59-2.21,2-2.18s1.87,1,1.86,2.26C103.65,71.13,103.66,73.5,103.66,75.86Z"/><path class="cls-3" d="M102.36,75.9q0,3.46,0,6.93c0,.46.06,1.07-.58,1.1s-.62-.59-.62-1.05q0-6.93,0-13.86c0-.46,0-1.1.6-1.1.77,0,.6.73.6,1.21C102.37,71.39,102.36,73.64,102.36,75.9Z"/></g></g></svg>