<?xml version="1.0" standalone="no"?>
<!DOCTYPE svg PUBLIC "-//W3C//DTD SVG 20010904//EN"
 "http://www.w3.org/TR/2001/REC-SVG-20010904/DTD/svg10.dtd">
<svg version="1.0" xmlns="http://www.w3.org/2000/svg"
 width="668.000000pt" height="668.000000pt" viewBox="0 0 668.000000 668.000000"
 preserveAspectRatio="xMidYMid meet">
<metadata>
Created by potrace 1.14, written by Peter Selinger 2001-2017
</metadata>
<g transform="translate(0.000000,668.000000) scale(0.100000,-0.100000)"
fill="#000000" stroke="none">
<path d="M1240 6551 c-36 -30 -35 -27 -40 -166 -1 -41 -2 -197 -1 -225 0 -8 0
-37 0 -65 0 -27 0 -57 0 -65 0 -8 0 -51 0 -95 0 -44 0 -87 0 -95 0 -8 0 -37 0
-65 0 -27 0 -57 0 -65 0 -8 0 -51 0 -95 0 -44 0 -87 0 -95 2 -69 0 -164 -5
-171 -3 -5 -2 -9 3 -9 4 0 7 -30 6 -67 -4 -106 -4 -132 -1 -221 2 -45 1 -82
-2 -82 -4 0 -4 -16 -2 -35 l4 -35 -53 4 c-30 2 -82 13 -116 24 -58 19 -155 37
-198 35 -59 -1 -158 -14 -173 -22 -9 -5 -37 -17 -61 -26 -55 -20 -145 -82
-193 -132 -127 -132 -97 -332 62 -413 46 -24 129 -32 180 -18 23 7 26 4 28
-24 9 -110 113 -200 227 -194 53 3 66 8 207 84 43 23 79 38 82 34 3 -5 5 -26
5 -48 1 -21 2 -74 3 -117 2 -42 1 -77 -2 -77 -3 0 -5 -25 -5 -55 0 -30 2 -55
5 -55 3 0 4 -30 3 -67 -4 -106 -4 -132 -1 -221 2 -45 1 -82 -2 -82 -3 0 -5
-25 -5 -55 0 -30 2 -55 5 -55 3 0 4 -30 3 -67 -4 -106 -4 -132 -1 -221 2 -45
1 -82 -2 -82 -3 0 -5 -25 -5 -55 0 -30 2 -55 5 -55 3 0 4 -21 2 -47 -11 -163
6 -231 60 -254 41 -17 385 -17 425 0 77 32 81 149 6 192 -20 12 -54 17 -125
17 -54 0 -109 1 -123 1 l-25 1 0 675 0 675 25 -10 c14 -5 25 -7 25 -5 0 2 11
0 25 -5 14 -5 36 -12 48 -14 29 -6 40 -9 187 -46 69 -18 132 -33 140 -35 26
-7 164 -43 190 -51 14 -4 30 -11 36 -15 6 -5 19 -10 30 -12 10 -2 32 -9 47
-15 16 -7 30 -12 32 -12 2 0 16 -5 32 -12 15 -6 31 -12 36 -13 4 -2 8 -3 10
-5 1 -1 9 -3 17 -5 8 -2 29 -9 46 -17 l31 -13 -69 -220 c-38 -121 -85 -272
-104 -335 -104 -333 -105 -338 -139 -415 -31 -71 -108 -314 -119 -375 -2 -14
-7 -36 -10 -50 -3 -14 -8 -38 -11 -55 -3 -16 -9 -55 -14 -85 -14 -80 -22 -130
-26 -170 -2 -19 -7 -55 -10 -80 -3 -25 -8 -74 -11 -110 -3 -36 -7 -90 -10
-120 -2 -30 -6 -178 -8 -328 -2 -150 -5 -275 -8 -277 -2 -2 -28 -7 -58 -10
-30 -3 -71 -8 -90 -10 -19 -2 -60 -7 -90 -10 -30 -3 -71 -8 -90 -10 -19 -3
-64 -7 -100 -11 -77 -7 -94 -9 -180 -19 -36 -4 -83 -9 -105 -12 -22 -2 -53 -5
-70 -7 -31 -3 -167 -17 -220 -22 -16 -1 -86 -5 -155 -9 -151 -8 -178 -12 -208
-31 -47 -31 -45 -3 -40 -838 1 -181 23 -207 174 -201 189 6 307 75 435 256 8
12 22 22 30 22 8 -1 52 -4 99 -7 216 -15 314 -22 460 -31 58 -3 130 -8 160
-10 195 -12 261 -17 310 -20 356 -25 391 -24 464 10 31 15 71 40 89 56 17 16
34 29 37 29 3 0 41 -14 85 -31 95 -37 182 -42 262 -15 57 19 133 80 168 136
25 39 77 214 67 224 -3 3 0 6 7 6 7 0 10 4 7 8 -3 5 8 60 24 122 17 63 32 125
34 139 2 14 5 26 6 26 2 0 4 9 6 20 1 11 5 29 8 40 7 26 27 106 31 125 2 8 13
53 25 100 12 47 24 94 26 105 4 22 4 21 35 145 11 47 22 92 24 100 2 8 11 44
20 80 9 36 18 76 21 89 3 14 7 28 9 31 2 4 7 20 9 36 10 50 14 67 31 134 9 36
18 72 20 80 2 8 20 83 40 165 21 83 39 157 40 165 2 8 4 17 5 20 1 3 3 10 5
15 1 6 3 12 4 15 2 3 4 14 6 24 2 10 10 40 19 65 8 25 17 57 20 71 3 14 20 72
37 130 17 58 39 134 49 170 15 55 81 278 97 332 8 27 104 -69 107 -107 4 -49
35 -94 69 -101 4 -1 10 -3 15 -4 69 -21 279 136 447 334 52 61 145 198 145
213 0 6 3 13 8 15 11 5 76 145 102 218 12 36 26 74 31 85 5 11 11 34 14 52 3
18 10 45 16 60 6 15 10 28 8 28 -2 0 12 103 18 130 17 78 5 376 -21 490 -52
233 -171 488 -301 643 -48 57 -58 69 -89 102 -146 155 -334 285 -534 366 -59
24 -114 44 -123 44 -9 0 -19 3 -23 8 -4 4 -11 7 -14 7 -4 1 -29 6 -57 13 -77
18 -105 23 -225 37 -19 2 -37 4 -40 5 -11 3 -185 0 -238 -5 -82 -8 -206 -32
-287 -56 -38 -11 -74 -21 -80 -22 -5 -2 -14 -5 -20 -8 -5 -4 -50 -23 -100 -44
-49 -21 -97 -43 -105 -49 -8 -6 -31 -20 -50 -30 -159 -86 -380 -296 -498 -472
-58 -89 -85 -144 -90 -186 -4 -44 -2 -50 30 -82 31 -31 40 -34 80 -32 47 3 76
22 98 66 30 62 145 221 202 281 116 121 254 225 373 280 28 12 53 27 56 32 3
5 8 8 10 6 2 -1 14 1 27 5 29 10 32 6 37 -35 22 -205 134 -490 240 -605 5 -7
24 -28 40 -49 17 -20 45 -52 63 -71 17 -19 32 -39 32 -44 0 -6 5 -10 12 -10 6
0 9 -3 6 -6 -4 -3 -45 13 -91 35 -85 40 -87 41 -174 36 -167 -10 -248 -15
-293 -19 -25 -3 -85 -7 -135 -10 -49 -4 -112 -9 -140 -11 -250 -23 -374 -23
-515 0 -14 3 -55 7 -91 10 -36 3 -75 7 -87 10 -12 2 -58 7 -101 10 -44 3 -89
8 -100 10 -22 4 -149 18 -169 18 -10 0 -12 153 -10 746 3 657 5 746 18 743 12
-3 193 -4 290 -1 21 0 145 -1 210 -2 30 -1 61 -1 68 0 13 1 21 1 87 1 25 0 52
0 60 0 8 0 35 0 60 0 25 0 51 0 58 1 6 0 36 -1 65 -3 28 -2 52 1 52 5 0 5 5 5
11 2 8 -6 156 -7 289 -4 16 0 127 -1 200 -2 24 0 46 -2 48 -4 2 -2 17 1 33 5
16 5 29 6 29 2 0 -8 85 -6 106 2 8 3 14 2 14 -2 0 -8 85 -6 106 2 8 3 14 2 14
-2 0 -8 85 -6 106 2 8 3 14 2 14 -2 0 -5 114 -6 295 -1 16 0 146 -1 205 -2 30
-1 61 -1 68 0 13 1 21 1 87 1 25 0 52 0 60 0 8 0 35 0 60 0 25 0 51 0 58 1 6
0 36 -1 65 -3 28 -2 52 1 52 5 0 5 5 5 11 2 8 -6 156 -7 289 -4 16 0 127 -1
200 -2 24 0 46 -2 48 -4 2 -2 17 1 33 5 16 5 29 6 29 2 0 -8 85 -6 106 2 8 3
14 2 14 -2 0 -8 85 -6 106 2 8 3 14 2 14 -2 0 -8 85 -6 106 2 8 3 14 2 14 -2
0 -5 114 -6 295 -1 16 0 146 -1 205 -2 30 -1 61 -1 68 0 13 1 21 1 87 1 25 0
52 0 60 0 8 0 35 0 60 0 25 0 51 0 58 1 6 0 36 -1 65 -3 28 -2 52 1 52 5 0 5
5 5 11 2 6 -4 57 -7 115 -7 l104 0 0 -1754 c0 -1396 -3 -1754 -12 -1755 -7 0
-528 0 -1158 -1 -922 0 -1151 -3 -1177 -13 -52 -22 -78 -93 -52 -147 23 -50
50 -59 187 -61 l127 -2 1 -382 2 -381 -134 -4 c-129 -3 -135 -4 -160 -29 -18
-18 -28 -41 -31 -71 -4 -37 -1 -49 21 -75 15 -17 41 -35 59 -39 39 -8 212 -8
227 1 5 3 10 3 10 -2 0 -9 442 -8 465 1 8 3 15 2 15 -2 0 -8 443 -7 465 2 8 3
15 2 15 -2 0 -8 443 -7 465 2 8 3 15 2 15 -2 0 -8 443 -7 465 2 8 3 15 2 15
-2 0 -4 38 -6 84 -5 l85 2 1 -218 1 -219 -1167 0 c-1140 0 -1167 0 -1192 -19
-63 -47 -70 -119 -17 -172 l25 -26 1250 -2 1250 -3 35 36 36 35 -3 376 -3 375
-34 29 -35 29 -1000 0 c-550 0 -1002 2 -1004 5 -4 3 -6 607 -3 731 l1 31 994
0 c769 0 1000 2 1024 12 16 7 37 27 46 44 16 30 17 176 14 1936 l-3 1903 -35
29 -34 29 -2666 0 -2666 0 -34 -29z m2322 -861 c24 -5 59 -10 78 -13 44 -6
206 -54 233 -68 19 -11 18 -13 -19 -48 -99 -92 -258 -197 -439 -288 -148 -75
-137 -75 -172 4 -17 38 -35 82 -41 98 -24 69 -52 216 -52 271 0 31 2 33 48 39
26 4 52 8 57 9 22 7 267 3 307 -4z m606 -252 c2 -5 9 -8 16 -8 14 0 193 -172
239 -229 15 -19 27 -41 27 -48 0 -16 -63 -147 -73 -151 -4 -2 -5 -8 -1 -13 3
-5 0 -9 -5 -9 -6 0 -11 -6 -11 -13 0 -7 -18 -40 -40 -74 -37 -57 -47 -64 -105
-79 -5 -1 -82 -20 -170 -42 -88 -22 -172 -45 -186 -50 -32 -13 -50 -40 -77
-117 -37 -107 -70 -185 -84 -198 -51 -52 -132 -49 -180 6 -21 24 -18 15 -24
60 -5 35 14 108 47 182 18 41 47 133 43 138 -3 2 -7 15 -9 27 -4 19 -26 52
-55 80 -19 18 -100 118 -100 123 0 4 37 24 83 47 45 22 109 55 142 75 33 19
67 38 75 42 22 10 159 104 195 133 16 13 64 58 105 101 l75 76 35 -26 c19 -14
37 -29 38 -33z m-3182 -728 c29 -10 78 -21 110 -24 33 -3 84 -8 114 -11 30 -3
69 -7 85 -9 63 -9 171 -20 193 -19 12 0 22 -3 22 -6 0 -3 17 -6 38 -6 36 0
142 -10 212 -20 19 -2 62 -7 95 -9 90 -7 179 -17 192 -21 10 -3 -2 -73 -43
-255 -3 -14 -6 -31 -6 -38 -1 -8 -8 -10 -17 -6 -9 3 -25 7 -36 9 -11 1 -20 3
-20 5 0 1 -9 3 -20 5 -11 2 -29 5 -40 8 -11 3 -38 10 -60 15 -22 6 -94 24
-160 42 -66 17 -127 32 -135 34 -13 4 -170 44 -195 50 -5 2 -28 6 -50 11 -22
4 -44 10 -50 14 -5 3 -23 6 -40 7 -26 1 -61 -15 -244 -112 -27 -14 -43 -10
-36 9 11 31 13 135 3 162 -5 17 -20 38 -33 47 -41 31 -68 30 -185 -3 -19 -6
-42 -11 -50 -11 -8 0 -19 -4 -25 -8 -16 -12 -55 8 -55 28 0 30 106 111 154
119 11 2 24 7 30 11 6 5 29 10 51 11 22 2 41 4 43 6 6 5 110 -17 158 -35z
m2207 -114 l78 -37 -2 -52 c-3 -109 27 -193 97 -263 66 -67 140 -97 239 -98
86 0 146 20 210 68 l32 24 79 -46 c95 -56 86 -47 159 -152 33 -47 63 -89 67
-95 35 -44 118 -168 118 -175 0 -4 4 -10 8 -12 4 -1 28 -32 52 -68 25 -36 47
-67 50 -70 3 -3 13 -17 23 -33 l18 -27 -100 -100 c-90 -91 -124 -114 -133 -92
-1 5 -28 30 -58 57 -126 109 -122 105 -115 134 14 54 14 64 -1 100 -25 63 -99
86 -155 48 -29 -19 -49 -55 -69 -125 -2 -4 -4 -11 -6 -17 -5 -15 -55 -198 -58
-215 -2 -8 -12 -42 -22 -75 -10 -33 -19 -65 -20 -72 -1 -7 -11 -41 -22 -75
-11 -35 -46 -154 -78 -266 l-58 -203 -30 7 c-17 4 -37 10 -46 14 -8 4 -94 31
-190 60 -96 29 -184 56 -195 61 -23 9 -90 30 -108 33 -14 3 -305 95 -327 103
-8 3 -19 7 -25 8 -5 2 -69 21 -142 44 l-132 42 13 42 c7 23 33 103 56 177 24
74 45 140 46 145 1 6 26 84 54 175 29 91 57 183 63 205 5 22 13 45 17 50 6 8
21 60 25 85 0 3 3 10 7 15 7 11 11 48 9 81 -2 42 -43 72 -156 114 -60 23 -114
42 -120 44 -5 1 -38 13 -73 26 l-63 23 5 36 c3 20 17 88 31 151 22 98 31 139
34 171 1 3 7 6 14 6 41 3 190 15 232 18 28 3 88 7 135 10 47 3 109 8 137 10
29 2 99 7 155 10 57 4 104 8 106 9 9 10 67 -6 135 -38z m-863 -1796 c43 -14
58 -19 68 -21 4 -1 18 -6 32 -11 14 -6 39 -14 55 -18 17 -4 75 -22 130 -40 55
-17 107 -33 115 -35 8 -2 16 -4 18 -5 1 -2 5 -3 10 -5 4 -1 14 -4 22 -7 8 -3
62 -20 120 -38 58 -17 116 -36 130 -41 14 -5 34 -11 45 -13 11 -2 56 -16 100
-31 44 -15 85 -28 90 -30 39 -8 125 -38 129 -44 3 -4 -7 -21 -22 -38 -15 -16
-40 -45 -56 -64 -16 -19 -45 -52 -65 -75 -44 -49 -78 -88 -156 -179 -57 -67
-97 -112 -140 -160 -11 -13 -36 -42 -56 -66 -21 -24 -49 -57 -64 -74 -125
-138 -163 -188 -165 -215 -5 -54 1 -73 30 -98 27 -24 40 -30 83 -34 10 -1 15
-8 12 -16 -4 -10 -34 -108 -40 -132 -1 -3 -5 -12 -8 -20 -3 -8 -13 -42 -22
-75 -9 -33 -20 -69 -25 -80 -5 -11 -12 -33 -16 -50 -4 -16 -8 -32 -9 -35 0 -3
-16 -52 -34 -110 -18 -58 -34 -112 -36 -120 -2 -8 -9 -28 -15 -45 -6 -16 -13
-38 -15 -48 -8 -39 -49 -155 -60 -170 -16 -22 -73 -44 -105 -41 -24 2 -92 7
-280 20 -47 3 -114 7 -150 9 -36 2 -108 7 -160 10 -52 3 -129 8 -170 11 -41 2
-106 6 -145 9 -38 3 -106 7 -150 9 -44 3 -118 8 -165 12 -47 3 -93 6 -103 5
-11 0 -17 8 -18 22 0 12 -2 31 -4 42 -5 25 -14 97 -20 150 -5 46 -14 112 -19
137 -5 20 9 32 39 34 11 0 47 4 79 8 78 10 152 17 201 21 22 2 40 4 40 5 0 2
37 6 125 14 30 3 82 9 115 12 33 4 77 7 97 8 21 0 38 3 38 6 0 3 21 6 48 8
l47 2 3 -71 c3 -83 22 -122 66 -141 39 -16 44 -16 81 -4 66 22 76 48 68 197
-13 286 -8 797 11 959 3 19 7 64 10 100 4 36 8 76 10 90 3 14 7 43 11 65 3 22
10 67 16 100 7 33 13 69 14 80 4 26 53 223 64 255 47 135 38 128 121 100z
m1021 -841 c-62 -261 -103 -425 -108 -439 -4 -8 -6 -18 -5 -21 1 -4 -3 -22 -9
-40 -5 -19 -12 -45 -14 -59 -3 -14 -17 -70 -30 -125 -14 -55 -27 -109 -30
-120 -3 -11 -8 -33 -11 -49 -2 -16 -7 -32 -9 -36 -2 -3 -6 -17 -8 -31 -3 -13
-14 -60 -25 -104 -12 -44 -23 -91 -26 -105 -9 -45 -34 -128 -41 -141 -5 -8 -4
-10 3 -5 12 7 -13 -60 -30 -81 -34 -42 -93 -46 -165 -13 -24 11 -47 20 -53 20
-5 0 -10 7 -10 16 0 15 53 200 68 234 3 8 7 20 7 25 1 6 5 17 8 25 6 16 68
218 72 235 1 6 5 17 8 25 3 8 17 56 32 105 15 50 37 124 50 165 31 99 35 114
33 120 -1 3 4 15 11 28 7 13 14 31 16 40 11 57 59 196 73 211 10 10 42 47 72
82 30 35 65 73 76 86 12 12 32 36 44 53 12 17 24 29 27 27 2 -3 -9 -60 -26
-128z m-2548 -1009 c5 -4 13 -63 22 -155 3 -26 9 -73 20 -150 16 -119 16 -133
2 -166 -26 -62 -109 -132 -171 -143 -26 -5 -26 -4 -25 57 1 34 1 145 0 247 -3
332 -5 308 27 312 41 5 120 4 125 -2z"/>
<path d="M44 4252 c-18 -16 -35 -42 -38 -58 -8 -37 -1 -165 13 -226 10 -42 18
-64 55 -148 17 -38 67 -111 106 -153 69 -76 215 -167 289 -182 9 -2 21 -4 26
-5 51 -11 112 34 120 90 9 58 -21 100 -91 128 -108 44 -193 117 -246 212 -36
66 -50 120 -54 212 -4 110 -27 145 -100 153 -44 5 -52 3 -80 -23z"/>
</g>
</svg>
